<?xml version="1.0" encoding="UTF-8"?>
<svg version="1.1" xmlns="http://www.w3.org/2000/svg" width="612" height="408">
<path d="M0 0 C0.83345947 0.14711426 1.66691895 0.29422852 2.52563477 0.44580078 C4.41150075 0.78088098 6.29681785 1.11906162 8.18164062 1.45996094 C35.43691433 6.35670114 62.23188796 6.21778841 89.38671875 0.68359375 C93.26772538 -0.05065075 97.06821862 -0.62087915 101 -1 C102.62930815 0.62930815 102.1329116 2.45050599 102.14044189 4.70042419 C102.14615204 5.71702118 102.15186218 6.73361816 102.15774536 7.78102112 C102.15942215 9.46807411 102.15942215 9.46807411 102.16113281 11.18920898 C102.16609772 12.36632446 102.17106262 13.54343994 102.17617798 14.75622559 C102.1883108 17.99380655 102.19575094 21.23135136 102.20018864 24.46895099 C102.20311566 26.48964453 102.20721972 28.51033235 102.21169281 30.53102303 C102.22537273 36.84748606 102.23503722 43.16393607 102.2388947 49.4804129 C102.24337825 56.78281973 102.26093765 64.08503963 102.2898953 71.3873896 C102.31147795 77.0247656 102.32159713 82.66208888 102.32293582 88.29950577 C102.32398623 91.66987631 102.32994362 95.04007127 102.34775543 98.41039848 C102.36471293 102.16754396 102.36296093 105.92422883 102.35644531 109.68139648 C102.3656601 110.80407425 102.37487488 111.92675201 102.3843689 113.08345032 C102.37601517 114.61257553 102.37601517 114.61257553 102.36749268 116.17259216 C102.36895924 117.06174537 102.3704258 117.95089857 102.3719368 118.86699581 C102.24919765 119.57088719 102.12645851 120.27477858 102 121 C98.35793536 123.4280431 95.68571805 123.27985309 91.4775238 123.25396729 C90.3181085 123.25864726 90.3181085 123.25864726 89.13527066 123.26342177 C86.53728782 123.27141876 83.93953744 123.26507158 81.34155273 123.25878906 C79.48230858 123.26149815 77.6230655 123.26505861 75.76382446 123.26940918 C70.70821728 123.27854462 65.65269151 123.27498433 60.59708285 123.26865101 C55.31423643 123.26359775 50.03139711 123.26828051 44.74855042 123.27142334 C35.8770319 123.27506463 27.00554667 123.27025927 18.1340332 123.26074219 C7.86557426 123.24985398 -2.4028053 123.25338523 -12.67126232 123.264395 C-21.47638364 123.27345923 -30.28148101 123.27475749 -39.08660549 123.26951766 C-44.35048566 123.26639363 -49.61432846 123.26600053 -54.87820625 123.27259064 C-59.82510613 123.27835104 -64.77190323 123.27439125 -69.71879196 123.26280212 C-71.53852988 123.26014867 -73.35827639 123.26093224 -75.17801094 123.26532745 C-77.65362815 123.27075736 -80.12891175 123.26398022 -82.60450745 123.25396729 C-83.33202463 123.25842873 -84.05954182 123.26289017 -84.80910498 123.26748681 C-89.77169961 123.22830039 -89.77169961 123.22830039 -92 121 C-92.03611064 118.36392297 -91.95264497 115.86984891 -91.75 113.25 C-91.69336182 112.47849609 -91.63672363 111.70699219 -91.57836914 110.91210938 C-91.45596897 109.33732467 -91.32650863 107.76307254 -91.18994141 106.18945312 C-91.02960752 104.3412857 -90.89297231 102.49108502 -90.76171875 100.640625 C-89.90944374 92.38485258 -87.5727239 84.65863219 -85.125 76.75 C-84.78525146 75.62916016 -84.44550293 74.50832031 -84.09545898 73.35351562 C-83.75716064 72.30357422 -83.4188623 71.25363281 -83.0703125 70.171875 C-82.61809326 68.7502002 -82.61809326 68.7502002 -82.15673828 67.29980469 C-81 65 -81 65 -77 63 C-77 77.85 -77 92.7 -77 108 C-71.72 108 -66.44 108 -61 108 C-61.04189453 105.79497803 -61.08378906 103.58995605 -61.12695312 101.31811523 C-61.25973813 94.01821795 -61.34796618 86.71826613 -61.41449738 79.41747952 C-61.4561823 74.99243023 -61.5126824 70.56862207 -61.60351562 66.14428711 C-61.69068932 61.87127124 -61.73832449 57.5994459 -61.75901794 53.32560921 C-61.77375641 51.6984184 -61.80253993 50.07129003 -61.84584045 48.44460869 C-62.17162791 35.69406833 -62.17162791 35.69406833 -59.2691803 31.49739075 C-57.26256643 29.72864667 -55.28852039 28.37186471 -53 27 C-51.99496463 26.11704628 -51.01173509 25.20826708 -50.05859375 24.26953125 C-45.23953731 19.7521147 -40.877884 15.99237731 -35 13 C-33.39109563 12.02863767 -31.78733254 11.04873217 -30.1875 10.0625 C-25.24889893 7.09484291 -20.22483379 4.42796053 -15 2 C-14.28714844 1.66613281 -13.57429688 1.33226563 -12.83984375 0.98828125 C-8.12949437 -1.01747446 -4.86100062 -0.88727667 0 0 Z M-41 33 C-49.80171047 42.81068703 -51.66859371 55.24250913 -51 68 C-49.84560026 79.24120407 -43.3277644 89.57948798 -35 97 C-22.33834202 106.19119102 -11.69136454 108.67340446 3.9921875 106.60546875 C14.38492099 104.2708692 22.99995644 97.8000502 29.890625 89.859375 C31.34158112 87.78835351 31.34158112 87.78835351 31 84 C24.565 81.525 24.565 81.525 18 79 C14.8 82.43333333 14.8 82.43333333 15 85 C14.34 85 13.68 85 13 85 C13 85.66 13 86.32 13 87 C11.34461042 87.69419563 9.67363977 88.35103764 8 89 C7.35675781 89.26425781 6.71351563 89.52851563 6.05078125 89.80078125 C-3.00279551 93.23041266 -11.50111616 93.03164481 -20.48828125 89.390625 C-28.17530734 85.13466654 -32.30718392 77.07844823 -35 69 C-35.83179465 56.4111079 -34.23713787 48.5248294 -26 39 C-20.63727035 32.96692915 -13.8456277 31.90229015 -6 31 C-3.27734375 31.18359375 -3.27734375 31.18359375 -0.75 31.5625 C7.28792271 32.72286177 15.25950217 29.984088 23 28 C20.1361257 24.90083087 17.32639032 22.8290838 13.625 20.8125 C12.70976562 20.30332031 11.79453125 19.79414062 10.8515625 19.26953125 C-7.89329124 10.92421965 -27.69205529 19.52862439 -41 33 Z M76.875 21.5625 C71.24159177 22.83864554 65.60395977 24.09029547 59.95452881 25.29350281 C57.05228205 25.91166948 54.15106158 26.53458985 51.24981689 27.15744019 C49.79305355 27.46883722 48.33581641 27.77802609 46.87811279 28.08499146 C44.80415372 28.52213128 42.73205941 28.96729456 40.66015625 29.4140625 C39.44980713 29.6713916 38.23945801 29.9287207 36.99243164 30.19384766 C33.84953164 30.86980108 33.84953164 30.86980108 31 33 C37.93 33.495 37.93 33.495 45 34 C45.33 58.09 45.66 82.18 46 107 C50.62 107 55.24 107 60 107 C60.33 82.91 60.66 58.82 61 34 C73.375 33.505 73.375 33.505 86 33 C86 28.71 86 24.42 86 20 C82.87683632 20 79.90728408 20.87063345 76.875 21.5625 Z " fill="#A72808" transform="translate(301,105)"/>
<path d="M0 0 C2.83439137 -0.10901505 5.66450203 -0.18777904 8.5 -0.25 C9.29148437 -0.28351563 10.08296875 -0.31703125 10.8984375 -0.3515625 C16.99672294 -0.45153439 20.7317737 0.93089569 26 4 C26.66 2.68 27.32 1.36 28 0 C38.23 0 48.46 0 59 0 C59.495 0.99 59.495 0.99 60 2 C60.33 1.34 60.66 0.68 61 0 C62.64574566 -0.02688151 64.29161413 -0.04634123 65.9375 -0.0625 C66.85402344 -0.07410156 67.77054687 -0.08570313 68.71484375 -0.09765625 C71 0 71 0 72 1 C72.09311889 2.50418739 72.11746028 4.01271356 72.11352539 5.51977539 C72.11341209 6.96115623 72.11341209 6.96115623 72.11329651 8.43165588 C72.10813522 9.476436 72.10297394 10.52121613 72.09765625 11.59765625 C72.0962413 12.66165146 72.09482635 13.72564667 72.09336853 14.82188416 C72.08775064 18.23545083 72.07519511 21.648953 72.0625 25.0625 C72.05748731 27.37044176 72.052924 29.67838455 72.04882812 31.98632812 C72.0377754 37.65757426 72.02101987 43.32878253 72 49 C70.18757948 49.02687279 68.37504767 49.04633715 66.5625 49.0625 C65.55316406 49.07410156 64.54382813 49.08570313 63.50390625 49.09765625 C61 49 61 49 60 48 C59.91134792 45.1156618 59.88478704 42.25537842 59.90234375 39.37109375 C59.9037587 38.50686295 59.90517365 37.64263214 59.90663147 36.75221252 C59.91224761 33.98060708 59.92480281 31.2090812 59.9375 28.4375 C59.94251292 26.5631522 59.94707619 24.68880315 59.95117188 22.81445312 C59.96222228 18.20960456 59.9794977 13.60481579 60 9 C56.7 9 53.4 9 50 9 C50.00523682 10.17618896 50.01047363 11.35237793 50.01586914 12.56420898 C50.03391663 16.91202031 50.04543108 21.2598283 50.05493164 25.60766602 C50.05997244 27.4924373 50.06680498 29.37720465 50.07543945 31.26196289 C50.08751617 33.96501636 50.09323068 36.66801831 50.09765625 39.37109375 C50.10281754 40.21900986 50.10797882 41.06692596 50.11329651 41.9405365 C50.11349195 43.96071068 50.06206211 45.98077934 50 48 C48.43632022 49.56367978 46.72161607 49.383179 44.5625 49.625 C43.35787109 49.76808594 43.35787109 49.76808594 42.12890625 49.9140625 C40 50 40 50 38 49 C38 36.13 38 23.26 38 10 C35.03 10 32.06 10 29 10 C29.05220703 11.051875 29.05220703 11.051875 29.10546875 12.125 C29.28800503 18.52246198 28.9652683 23.27396466 26 29 C21.82478545 32.92217124 16.46884753 32.63541016 11 33 C11 38.28 11 43.56 11 49 C8.47946405 50.26026798 7.1457902 49.91874445 4.375 49.5625 C3.55773437 49.46066406 2.74046875 49.35882813 1.8984375 49.25390625 C1.27195313 49.17011719 0.64546875 49.08632813 0 49 C-0.814647 46.14011851 -1.12623963 43.60040882 -1.12939453 40.63037109 C-1.13254669 39.77623627 -1.13569885 38.92210144 -1.13894653 38.04208374 C-1.1369223 37.12843048 -1.13489807 36.21477722 -1.1328125 35.2734375 C-1.13376923 34.32941071 -1.13472595 33.38538391 -1.13571167 32.41275024 C-1.13639131 30.42067396 -1.13455207 28.42859545 -1.13037109 26.43652344 C-1.12500791 23.37950708 -1.1303295 20.32263686 -1.13671875 17.265625 C-1.13605816 15.33072884 -1.13477741 13.39583277 -1.1328125 11.4609375 C-1.13483673 10.54323578 -1.13686096 9.62553406 -1.13894653 8.68002319 C-1.13579437 7.83219269 -1.13264221 6.98436218 -1.12939453 6.11083984 C-1.12859894 5.36345551 -1.12780334 4.61607117 -1.12698364 3.84603882 C-1 2 -1 2 0 0 Z M11 10 C11 14.29 11 18.58 11 23 C12.65 23 14.3 23 16 23 C18.48038907 19.2794164 18.46337203 17.40203429 18 13 C16.207809 10.53827847 16.207809 10.53827847 14 9 C12.7763932 8.9254644 12.7763932 8.9254644 11 10 Z " fill="#A63C20" transform="translate(251,237)"/>
<path d="M0 0 C3.63 0 7.26 0 11 0 C14.3 5.94 17.6 11.88 21 18 C21.28919259 12.4505765 21.28919259 12.4505765 21.56811523 6.90063477 C21.88888889 1.11111111 21.88888889 1.11111111 23 0 C24.66429051 -0.09823937 26.33281931 -0.12973631 28 -0.125 C29.36125 -0.12886719 29.36125 -0.12886719 30.75 -0.1328125 C33 0 33 0 34 1 C34.09311889 2.50418739 34.11746028 4.01271356 34.11352539 5.51977539 C34.11344986 6.48069595 34.11337433 7.44161652 34.11329651 8.43165588 C34.10813522 9.476436 34.10297394 10.52121613 34.09765625 11.59765625 C34.0962413 12.66165146 34.09482635 13.72564667 34.09336853 14.82188416 C34.08775064 18.23545083 34.07519511 21.648953 34.0625 25.0625 C34.05748731 27.37044176 34.052924 29.67838455 34.04882812 31.98632812 C34.03777539 37.65757711 34.02049877 43.3287776 34 49 C30.37 49 26.74 49 23 49 C22.37351562 47.80761719 21.74703125 46.61523438 21.1015625 45.38671875 C20.2761271 43.82026748 19.45060156 42.2538637 18.625 40.6875 C18.2125 39.90181641 17.8 39.11613281 17.375 38.30664062 C16.97539062 37.54931641 16.57578125 36.79199219 16.1640625 36.01171875 C15.61419678 34.96697388 15.61419678 34.96697388 15.05322266 33.90112305 C14.12046611 32.21744775 13.06767862 30.60151793 12 29 C12 35.27 12 41.54 12 48 C7.78370866 50.10814567 5.60209225 50.17700355 1 50 C-0.63626587 47.11794511 -1.24941779 45.06061123 -1.24291992 41.75390625 C-1.24599655 40.92624756 -1.24907318 40.09858887 -1.25224304 39.24584961 C-1.24505753 38.36034424 -1.23787201 37.47483887 -1.23046875 36.5625 C-1.23001053 35.6454126 -1.22955231 34.7283252 -1.2290802 33.78344727 C-1.22606273 31.84682927 -1.21819154 29.91021359 -1.20581055 27.97363281 C-1.18756761 25.01098012 -1.18530089 22.04864048 -1.18554688 19.0859375 C-1.18063078 17.2031223 -1.17480206 15.32030922 -1.16796875 13.4375 C-1.16685593 12.55199463 -1.1657431 11.66648926 -1.16459656 10.75415039 C-1.15502678 9.51266235 -1.15502678 9.51266235 -1.14526367 8.24609375 C-1.14145187 7.52091553 -1.13764008 6.7957373 -1.13371277 6.04858398 C-1 4 -1 4 0 0 Z " fill="#A52E10" transform="translate(368,237)"/>
<path d="M0 0 C5.91601135 2.97193663 9.01099065 7.89847997 11.32421875 13.94140625 C14.52993462 23.70679507 13.07790164 32.67061456 9 42 C6.19025023 45.85063434 3.5471889 48.48427037 -1 50 C-7.17877504 50.5043898 -12.83058569 50.81552008 -18 47 C-23.70585045 40.96716672 -26.13098581 33.63967244 -26.3125 25.4375 C-26.02324378 16.0366727 -23.30195578 9.0658292 -17 2 C-11.88872776 -1.26202543 -5.80226594 -0.88732382 0 0 Z M-10.25 10.8125 C-13.70980991 15.13726239 -13.21800655 18.89909547 -13.25 24.25 C-13.270625 25.09691406 -13.29125 25.94382812 -13.3125 26.81640625 C-13.34473553 31.9982676 -12.81174714 35.47160723 -10 40 C-7.69 40 -5.38 40 -3 40 C-0.31477355 34.60823579 0.47084908 30.42806726 0.375 24.4375 C0.38660156 23.70853516 0.39820313 22.97957031 0.41015625 22.22851562 C0.38438201 17.45598613 -0.36028009 14.12100159 -3 10 C-6.37169151 8.44383469 -7.33584885 8.46498935 -10.25 10.8125 Z " fill="#A43113" transform="translate(352,237)"/>
<path d="M0 0 C1.12148437 -0.02578125 2.24296875 -0.0515625 3.3984375 -0.078125 C6.97579017 0.28567358 8.76496033 1.11504081 11.625 3.25 C16.84661262 10.00738104 19.18037573 16.15529869 19.0625 24.5625 C19.05637695 25.30725586 19.05025391 26.05201172 19.04394531 26.81933594 C18.83131364 34.34649703 16.71929518 39.89912772 12.75 46.25 C8.27295165 50.46369257 2.98913643 50.699473 -2.91015625 50.56640625 C-7.86958533 49.92977589 -11.00983339 47.53932402 -14.625 44.125 C-19.65518851 35.86111887 -20.38495708 26.75025564 -19.375 17.25 C-17.87158225 11.88395511 -15.26606889 7.27077119 -11.375 3.25 C-10.715 3.25 -10.055 3.25 -9.375 3.25 C-9.375 2.59 -9.375 1.93 -9.375 1.25 C-6.07164934 0.14888311 -3.47667863 0.04773472 0 0 Z M-1.375 9.25 C-5.5089074 12.55712592 -6.63356839 16.1711935 -7.375 21.25 C-8.00051725 27.97431044 -7.17804596 34.54543105 -3.375 40.25 C-0.41753508 40.83345476 -0.41753508 40.83345476 2.625 40.25 C6.88343592 35.99156408 6.83363426 31.14080139 6.875 25.4375 C6.895625 24.73818359 6.91625 24.03886719 6.9375 23.31835938 C6.97328377 18.5367536 6.21041786 15.27787321 3.625 11.25 C1.06778263 9.82442644 1.06778263 9.82442644 -1.375 9.25 Z " fill="#A62604" transform="translate(228.375,236.75)"/>
<path d="M0 0 C2.87557703 -0.08138426 5.74882262 -0.14067851 8.625 -0.1875 C9.43324219 -0.21263672 10.24148438 -0.23777344 11.07421875 -0.26367188 C17.08849616 -0.33701672 21.32956299 0.469523 25.86328125 4.765625 C27.43531693 7.85567451 27.29082748 10.30575082 27.1875 13.75 C27.16042969 14.92046875 27.13335937 16.0909375 27.10546875 17.296875 C27.07066406 18.18890625 27.03585937 19.0809375 27 20 C27.66 20.33 28.32 20.66 29 21 C26.71839888 28.32514045 26.71839888 28.32514045 23.9375 30.9375 C19.64082894 32.49161507 15.55677829 32.69621478 11 33 C11 38.28 11 43.56 11 49 C8.47946405 50.26026798 7.1457902 49.91874445 4.375 49.5625 C3.55773437 49.46066406 2.74046875 49.35882813 1.8984375 49.25390625 C1.27195313 49.17011719 0.64546875 49.08632813 0 49 C-0.814647 46.14011851 -1.12623963 43.60040882 -1.12939453 40.63037109 C-1.13254669 39.77623627 -1.13569885 38.92210144 -1.13894653 38.04208374 C-1.1369223 37.12843048 -1.13489807 36.21477722 -1.1328125 35.2734375 C-1.13376923 34.32941071 -1.13472595 33.38538391 -1.13571167 32.41275024 C-1.13639131 30.42067396 -1.13455207 28.42859545 -1.13037109 26.43652344 C-1.12500791 23.37950708 -1.1303295 20.32263686 -1.13671875 17.265625 C-1.13605816 15.33072884 -1.13477741 13.39583277 -1.1328125 11.4609375 C-1.13483673 10.54323578 -1.13686096 9.62553406 -1.13894653 8.68002319 C-1.13579437 7.83219269 -1.13264221 6.98436218 -1.12939453 6.11083984 C-1.12859894 5.36345551 -1.12780334 4.61607117 -1.12698364 3.84603882 C-1 2 -1 2 0 0 Z M11 10 C11 14.29 11 18.58 11 23 C12.65 23 14.3 23 16 23 C18.48038907 19.2794164 18.46337203 17.40203429 18 13 C16.207809 10.53827847 16.207809 10.53827847 14 9 C12.7763932 8.9254644 12.7763932 8.9254644 11 10 Z " fill="#A92B0C" transform="translate(251,237)"/>
<path d="M0 0 C0.10845031 2.56364483 0.18749744 5.12266279 0.25 7.6875 C0.30027344 8.7693457 0.30027344 8.7693457 0.3515625 9.87304688 C0.42323839 13.79730202 0.2538214 15.59461995 -1.890625 19.01953125 C-4 21 -4 21 -6 21 C-6.25910156 21.55816406 -6.51820313 22.11632812 -6.78515625 22.69140625 C-8.14597196 25.27739367 -9.73580453 27.56244546 -11.4375 29.9375 C-13.29198207 32.52896847 -14.99450933 34.98949927 -16.47265625 37.81640625 C-16.97667969 38.53699219 -17.48070312 39.25757813 -18 40 C-19.32 40 -20.64 40 -22 40 C-22.08816905 36.35432287 -22.14077948 32.70892526 -22.1875 29.0625 C-22.21263672 28.04091797 -22.23777344 27.01933594 -22.26367188 25.96679688 C-22.33866637 18.142371 -21.76245723 11.25828288 -16.5625 5.125 C-15.716875 4.42375 -14.87125 3.7225 -14 3 C-13.01 2.13375 -13.01 2.13375 -12 1.25 C-7.85471138 -1.34080539 -4.61405454 -1.01678664 0 0 Z " fill="#A72B0C" transform="translate(243,119)"/>
<path d="M0 0 C3.3 0 6.6 0 10 0 C11 1 11 1 11.12025452 2.94252014 C11.1169236 4.21826149 11.1169236 4.21826149 11.11352539 5.51977539 C11.11344986 6.48069595 11.11337433 7.44161652 11.11329651 8.43165588 C11.10813522 9.476436 11.10297394 10.52121613 11.09765625 11.59765625 C11.0962413 12.66165146 11.09482635 13.72564667 11.09336853 14.82188416 C11.08775064 18.23545083 11.07519511 21.648953 11.0625 25.0625 C11.05748731 27.37044176 11.052924 29.67838455 11.04882812 31.98632812 C11.03777539 37.65757711 11.02049877 43.3287776 11 49 C7.37 49 3.74 49 0 49 C0 32.83 0 16.66 0 0 Z " fill="#A12D0F" transform="translate(312,237)"/>
<path d="M0 0 C2.64 0 5.28 0 8 0 C8 15.18 8 30.36 8 46 C4.7 45.67 1.4 45.34 -2 45 C-2.33 43.68 -2.66 42.36 -3 41 C-3.33 40.67 -3.66 40.34 -4 40 C-4.04063832 38.33382885 -4.042721 36.66611905 -4 35 C-5.32 35 -6.64 35 -8 35 C-7.773125 34.236875 -7.54625 33.47375 -7.3125 32.6875 C-7.209375 31.800625 -7.10625 30.91375 -7 30 C-8.41666667 28.41666667 -8.41666667 28.41666667 -10 27 C-10 25.68 -10 24.36 -10 23 C-9.01 22.67 -8.02 22.34 -7 22 C-6.34 21.34 -5.68 20.68 -5 20 C-4.01 20.33 -3.02 20.66 -2 21 C-0.7411465 17.16443075 -0.9236863 13.35857515 -1 9.375 C-1.13458029 2.26916058 -1.13458029 2.26916058 0 0 Z " fill="#A52605" transform="translate(393,239)"/>
<path d="M0 0 C1.12148437 -0.02578125 2.24296875 -0.0515625 3.3984375 -0.078125 C6.94085696 0.28212105 8.8212621 1.08681645 11.625 3.25 C11.625 3.91 11.625 4.57 11.625 5.25 C10.635 5.58 9.645 5.91 8.625 6.25 C8.625 5.59 8.625 4.93 8.625 4.25 C5.325 3.59 2.025 2.93 -1.375 2.25 C-1.705 3.57 -2.035 4.89 -2.375 6.25 C-1.055 6.58 0.265 6.91 1.625 7.25 C1.625 7.91 1.625 8.57 1.625 9.25 C2.5840625 9.4665625 2.5840625 9.4665625 3.5625 9.6875 C5.625 10.25 5.625 10.25 6.625 11.25 C6.66563832 12.91617115 6.667721 14.58388095 6.625 16.25 C6.0475 15.445625 5.47 14.64125 4.875 13.8125 C2.88435262 11.21088966 2.88435262 11.21088966 0.5625 10.25 C-1.4079678 10.08863129 -1.4079678 10.08863129 -3 11.1875 C-6.86954644 16.99181966 -7.22346655 24.76184982 -5.95703125 31.4609375 C-5.30524241 34.17590757 -4.62713524 36.74572951 -3.375 39.25 C0.76593698 39.45970559 0.76593698 39.45970559 4.625 38.25 C4.295 39.57 3.965 40.89 3.625 42.25 C0.655 41.92 -2.315 41.59 -5.375 41.25 C-5.66375 40.445625 -5.9525 39.64125 -6.25 38.8125 C-7.10762568 36.1173532 -7.10762568 36.1173532 -9.375 35.25 C-9.59655127 32.31294869 -9.80274197 29.37619637 -10 26.4375 C-10.09667969 25.18743164 -10.09667969 25.18743164 -10.1953125 23.91210938 C-10.246875 23.10966797 -10.2984375 22.30722656 -10.3515625 21.48046875 C-10.40393066 20.74207764 -10.45629883 20.00368652 -10.51025391 19.24291992 C-10.375 17.25 -10.375 17.25 -8.375 14.25 C-8.705 12.93 -9.035 11.61 -9.375 10.25 C-10.035 12.89 -10.695 15.53 -11.375 18.25 C-13.025 18.58 -14.675 18.91 -16.375 19.25 C-16.705 23.54 -17.035 27.83 -17.375 32.25 C-16.385 32.25 -15.395 32.25 -14.375 32.25 C-14.045 36.21 -13.715 40.17 -13.375 44.25 C-18.90842265 38.71657735 -19.58144823 31.81220829 -19.8125 24.1875 C-19.62223119 15.85191391 -17.23953083 9.31001519 -11.375 3.25 C-10.715 3.25 -10.055 3.25 -9.375 3.25 C-9.375 2.59 -9.375 1.93 -9.375 1.25 C-6.07164934 0.14888311 -3.47667863 0.04773472 0 0 Z " fill="#A63619" transform="translate(228.375,236.75)"/>
<path d="M0 0 C0.66 1.32 1.32 2.64 2 4 C1.01 4.495 1.01 4.495 0 5 C-0.33 18.2 -0.66 31.4 -1 45 C-2.98 45 -4.96 45 -7 45 C-7 45.66 -7 46.32 -7 47 C-7.99 46.67 -8.98 46.34 -10 46 C-9.67 45.34 -9.34 44.68 -9 44 C-8.92555457 41.55390926 -8.90859918 39.13662966 -8.9375 36.69140625 C-8.94128662 35.96888168 -8.94507324 35.24635712 -8.94897461 34.50193787 C-8.96534785 31.40641432 -8.99345929 28.31102188 -9.02050781 25.21557617 C-9.03857412 22.95752572 -9.0506814 20.69949665 -9.0625 18.44140625 C-9.07079834 17.7413295 -9.07909668 17.04125275 -9.08764648 16.31996155 C-9.10312488 13.25540461 -8.97781258 10.93343773 -8 8 C-7.7834375 7.01 -7.7834375 7.01 -7.5625 6 C-7 4 -7 4 -5 1 C-2.375 0.3125 -2.375 0.3125 0 0 Z " fill="#A72604" transform="translate(300,240)"/>
<path d="M0 0 C2.475 0.495 2.475 0.495 5 1 C6.13016601 6.02296004 5.77916092 9.97874074 5 15 C4.34 15 3.68 15 3 15 C3 10.71 3 6.42 3 2 C1.02 2.66 -0.96 3.32 -3 4 C-5.09962304 4.49613116 -7.20723687 4.95924462 -9.3203125 5.39453125 C-10.54524414 5.65057129 -11.77017578 5.90661133 -13.03222656 6.17041016 C-13.67824829 6.30481506 -14.32427002 6.43921997 -14.98986816 6.57769775 C-18.45358552 7.30537919 -21.91011404 8.06570872 -25.3671875 8.82421875 C-26.77994654 9.13346981 -28.19270696 9.44271459 -29.60546875 9.75195312 C-31.02864734 10.06379522 -32.4518244 10.37564426 -33.875 10.6875 C-35.35285837 11.0110961 -36.83072292 11.33466395 -38.30859375 11.65820312 C-41.87246688 12.43847794 -45.43625733 13.21912957 -49 14 C-48.21753906 14.06058594 -47.43507813 14.12117187 -46.62890625 14.18359375 C-45.61699219 14.26738281 -44.60507812 14.35117188 -43.5625 14.4375 C-42.04849609 14.55931641 -42.04849609 14.55931641 -40.50390625 14.68359375 C-38 15 -38 15 -37 16 C-36.90560022 18.26991887 -36.88257774 20.54281967 -36.88647461 22.81469727 C-36.88632858 23.52685394 -36.88618256 24.23901062 -36.8860321 24.9727478 C-36.8867313 27.33733112 -36.89452394 29.70183661 -36.90234375 32.06640625 C-36.90420791 33.70165463 -36.90563182 35.33690357 -36.90663147 36.97215271 C-36.91045682 41.28434785 -36.92028725 45.59650952 -36.93133545 49.90869141 C-36.9415492 54.30565946 -36.94612901 58.70263289 -36.95117188 63.09960938 C-36.96190951 71.73308831 -36.97898613 80.36654 -37 89 C-37.66 89 -38.32 89 -39 89 C-39.495 53.36 -39.495 53.36 -40 17 C-41.98 17.33 -43.96 17.66 -46 18 C-48.6503019 17.91701075 -51.23855691 17.78475828 -53.875 17.5625 C-54.56335938 17.51029297 -55.25171875 17.45808594 -55.9609375 17.40429688 C-57.64112758 17.27594902 -59.32064749 17.13887775 -61 17 C-61 16.34 -61 15.68 -61 15 C-58.36 14.67 -55.72 14.34 -53 14 C-53 13.34 -53 12.68 -53 12 C-48.46298506 10.54815522 -44.81938524 9.76490804 -40 10 C-40 9.34 -40 8.68 -40 8 C-39.21753906 7.93941406 -38.43507813 7.87882813 -37.62890625 7.81640625 C-36.61699219 7.73261719 -35.60507812 7.64882812 -34.5625 7.5625 C-33.55316406 7.48128906 -32.54382813 7.40007812 -31.50390625 7.31640625 C-29.06359221 7.26788532 -29.06359221 7.26788532 -28 6 C-25.47403741 5.76346477 -22.96892793 5.57826308 -20.4375 5.4375 C-19.37112305 5.37272461 -19.37112305 5.37272461 -18.28320312 5.30664062 C-16.52238088 5.20028223 -14.7612168 5.09961154 -13 5 C-13 4.34 -13 3.68 -13 3 C-6.565 2.505 -6.565 2.505 0 2 C0 1.34 0 0.68 0 0 Z " fill="#9D5038" transform="translate(384,123)"/>
<path d="M0 0 C2 4 2 4 1.6875 6.0625 C1.460625 6.701875 1.23375 7.34125 1 8 C-0.25433458 11.76300374 -0.10695422 15.27210909 -0.0625 19.1875 C-0.05798828 19.93708984 -0.05347656 20.68667969 -0.04882812 21.45898438 C-0.03706354 23.30602383 -0.01912865 25.15302213 0 27 C0.99 27.33 1.98 27.66 3 28 C3.6875 30.0625 3.6875 30.0625 4 32 C5.43640171 32.19573608 6.87419504 32.38127816 8.3125 32.5625 C9.11300781 32.66691406 9.91351563 32.77132812 10.73828125 32.87890625 C13.16817116 33.14755178 13.16817116 33.14755178 16 32 C19 36.75 19 36.75 19 39 C15.39006828 40.13480527 12.0157673 40.10015767 8.25 40.0625 C7.07953125 40.05347656 5.9090625 40.04445313 4.703125 40.03515625 C3.81109375 40.02355469 2.9190625 40.01195312 2 40 C1.67 39.34 1.34 38.68 1 38 C0.195625 37.835 -0.60875 37.67 -1.4375 37.5 C-4 36 -4 36 -4.80859375 33.71875 C-6.29411765 26.58823529 -6.29411765 26.58823529 -5 24 C-5.99 24 -6.98 24 -8 24 C-8.02685938 21.85423363 -8.04633088 19.70837355 -8.0625 17.5625 C-8.07410156 16.36753906 -8.08570313 15.17257812 -8.09765625 13.94140625 C-8 11 -8 11 -7 10 C-5.35 10 -3.7 10 -2 10 C-1.34 6.7 -0.68 3.4 0 0 Z " fill="#A62505" transform="translate(219,245)"/>
<path d="M0 0 C0.66 0.99 1.32 1.98 2 3 C2.66 3 3.32 3 4 3 C3.67 4.32 3.34 5.64 3 7 C3.85376221 6.83918945 4.70752441 6.67837891 5.5871582 6.51269531 C11.43060444 5.63486163 17.28853784 5.77391875 23.1875 5.75 C24.47076172 5.729375 25.75402344 5.70875 27.07617188 5.6875 C28.30271484 5.68234375 29.52925781 5.6771875 30.79296875 5.671875 C31.9121167 5.6625293 33.03126465 5.65318359 34.18432617 5.64355469 C37 6 37 6 38.88793945 7.52050781 C39.25491943 8.00874023 39.62189941 8.49697266 40 9 C39.01 8.835 38.02 8.67 37 8.5 C23.44020437 6.82923947 10.57559084 7.08588106 -1 15 C-6.23462674 19.24783407 -10.88454795 23.65085409 -15 29 C-14.67 26.69 -14.34 24.38 -14 22 C-12.68 21.67 -11.36 21.34 -10 21 C-10.33 18.36 -10.66 15.72 -11 13 C-11.54269531 13.30035156 -12.08539063 13.60070312 -12.64453125 13.91015625 C-13.35996094 14.29042969 -14.07539063 14.67070312 -14.8125 15.0625 C-15.52019531 15.44535156 -16.22789062 15.82820312 -16.95703125 16.22265625 C-19 17 -19 17 -22 16 C-16.618698 10.93269751 -11.6012995 6.36536837 -5 3 C-3.33020674 2.00522955 -1.66220581 1.00739746 0 0 Z " fill="#A8371B" transform="translate(271,115)"/>
<path d="M0 0 C1.62930815 1.62930815 1.1329116 3.45050599 1.14044189 5.70042419 C1.14900711 7.22531967 1.14900711 7.22531967 1.15774536 8.78102112 C1.15886322 9.90572311 1.15998108 11.03042511 1.16113281 12.18920898 C1.16609772 13.36632446 1.17106262 14.54343994 1.17617798 15.75622559 C1.1883108 18.99380655 1.19575094 22.23135136 1.20018864 25.46895099 C1.20311566 27.48964453 1.20721972 29.51033235 1.21169281 31.53102303 C1.22537273 37.84748606 1.23503722 44.16393607 1.2388947 50.4804129 C1.24337825 57.78281973 1.26093765 65.08503963 1.2898953 72.3873896 C1.31147795 78.0247656 1.32159713 83.66208888 1.32293582 89.29950577 C1.32398623 92.66987631 1.32994362 96.04007127 1.34775543 99.41039848 C1.36471293 103.16754396 1.36296093 106.92422883 1.35644531 110.68139648 C1.3656601 111.80407425 1.37487488 112.92675201 1.3843689 114.08345032 C1.37879974 115.10286713 1.37323059 116.12228394 1.36749268 117.17259216 C1.36895924 118.06174537 1.3704258 118.95089857 1.3719368 119.86699581 C1.18782808 120.92283288 1.18782808 120.92283288 1 122 C-0.485 122.99 -0.485 122.99 -2 124 C-3.32 123.34 -4.64 122.68 -6 122 C-4.35 122 -2.7 122 -1 122 C-1 82.73 -1 43.46 -1 3 C-9.415 3.495 -9.415 3.495 -18 4 C-18 3.67 -18 3.34 -18 3 C-17.31292969 2.86722656 -16.62585938 2.73445313 -15.91796875 2.59765625 C-14.56638672 2.33275391 -14.56638672 2.33275391 -13.1875 2.0625 C-11.84751953 1.80146484 -11.84751953 1.80146484 -10.48046875 1.53515625 C-2.70506485 -0.14237183 -2.70506485 -0.14237183 0 0 Z " fill="#C88753" transform="translate(402,104)"/>
<path d="M0 0 C8 2 8 2 10 3 C10.31241371 5.54941373 10.51303421 8.00361513 10.625 10.5625 C10.66367187 11.27341797 10.70234375 11.98433594 10.7421875 12.71679688 C10.83671783 14.47742425 10.91945817 16.23867728 11 18 C10.01 18 9.02 18 8 18 C7.7525 18.639375 7.505 19.27875 7.25 19.9375 C6 22 6 22 3.9375 22.625 C3.298125 22.74875 2.65875 22.8725 2 23 C1.67 23.66 1.34 24.32 1 25 C1.99 25.33 2.98 25.66 4 26 C2.68 26.33 1.36 26.66 0 27 C-0.33 28.65 -0.66 30.3 -1 32 C-3.64 32 -6.28 32 -9 32 C-9 30.02 -9 28.04 -9 26 C-7.02 26 -5.04 26 -3 26 C-3 25.01 -3 24.02 -3 23 C-2.34 23 -1.68 23 -1 23 C-0.67 15.41 -0.34 7.82 0 0 Z " fill="#A62606" transform="translate(353,253)"/>
<path d="M0 0 C0.33 0 0.66 0 1 0 C1 24.75 1 49.5 1 75 C-4.94 75 -10.88 75 -17 75 C-17.33 64.44 -17.66 53.88 -18 43 C-18.66 43 -19.32 43 -20 43 C-21.88391785 46.26545761 -22.49287967 49.28111761 -23 53 C-23.33 53 -23.66 53 -24 53 C-24.61806307 45.23987475 -23.58699203 37.99684866 -20 31 C-18.68 30.34 -17.36 29.68 -16 29 C-16 43.85 -16 58.7 -16 74 C-10.72 74 -5.44 74 0 74 C0 49.58 0 25.16 0 0 Z " fill="#BB7461" transform="translate(240,139)"/>
<path d="M0 0 C1.859375 0.6171875 1.859375 0.6171875 4 2 C7.02816647 8.59841212 8.81992151 15.75735999 8 23 C7.34 23.66 6.68 24.32 6 25 C6 21.04 6 17.08 6 13 C3.03 12.34 0.06 11.68 -3 11 C-3.06058594 12.42054688 -3.12117188 13.84109375 -3.18359375 15.3046875 C-3.26799291 17.16146909 -3.35264123 19.01823936 -3.4375 20.875 C-3.47681641 21.81214844 -3.51613281 22.74929688 -3.55664062 23.71484375 C-3.59853516 24.61074219 -3.64042969 25.50664062 -3.68359375 26.4296875 C-3.73858032 27.67081299 -3.73858032 27.67081299 -3.79467773 28.93701172 C-4 31 -4 31 -5 33 C-5.66 33 -6.32 33 -7 33 C-7 33.99 -7 34.98 -7 36 C-14.75 36.125 -14.75 36.125 -17 35 C-17 33.35 -17 31.7 -17 30 C-16.34 31.32 -15.68 32.64 -15 34 C-12.69 34 -10.38 34 -8 34 C-6.2308721 28.67155527 -5.6902962 24.03473121 -5.75 18.4375 C-5.74226563 17.70853516 -5.73453125 16.97957031 -5.7265625 16.22851562 C-5.74260815 11.77183661 -6.32883683 8.19780272 -8 4 C-6.8125 2.4375 -6.8125 2.4375 -5 1 C-2.3125 1.3125 -2.3125 1.3125 0 2 C0 1.34 0 0.68 0 0 Z " fill="#A9442A" transform="translate(357,243)"/>
<path d="M0 0 C1.65 0.33 3.3 0.66 5 1 C5.13277344 1.62648437 5.26554687 2.25296875 5.40234375 2.8984375 C5.57894531 3.71570313 5.75554687 4.53296875 5.9375 5.375 C6.11152344 6.18710937 6.28554688 6.99921875 6.46484375 7.8359375 C6.92330693 10.029463 6.92330693 10.029463 8 12 C7.6953125 13.83984375 7.6953125 13.83984375 7.125 15.9375 C6.94195312 16.62714844 6.75890625 17.31679688 6.5703125 18.02734375 C5.86972323 20.45061487 5.12974093 22.74051815 4 25 C3.34 25 2.68 25 2 25 C2 24.34 2 23.68 2 23 C1.34 23 0.68 23 0 23 C0 22.34 0 21.68 0 21 C-0.66 21 -1.32 21 -2 21 C-2.25073809 18.62554052 -2.47597287 16.25301023 -2.6875 13.875 C-2.76033203 13.20984375 -2.83316406 12.5446875 -2.90820312 11.859375 C-3.31022965 7.03505674 -2.49471842 4.11724737 0 0 Z " fill="#A72504" transform="translate(331,253)"/>
<path d="M0 0 C4.37823917 -0.04938149 8.75633146 -0.0857104 13.13476562 -0.10986328 C14.6247032 -0.11993043 16.11462097 -0.13358518 17.60449219 -0.15087891 C19.74419028 -0.17509653 21.88362753 -0.18647564 24.0234375 -0.1953125 C25.31169434 -0.20578613 26.59995117 -0.21625977 27.92724609 -0.22705078 C31 0 31 0 33 2 C33.24050903 3.98684692 33.24050903 3.98684692 33.22705078 6.44970703 C33.22689972 7.37051056 33.22674866 8.29131409 33.22659302 9.24002075 C33.21627045 10.23589203 33.20594788 11.23176331 33.1953125 12.2578125 C33.1924826 13.27600067 33.18965271 14.29418884 33.18673706 15.3432312 C33.1755177 18.603939 33.15040996 21.86437484 33.125 25.125 C33.11497247 27.33202729 33.10584623 29.53905888 33.09765625 31.74609375 C33.07557268 37.16415572 33.04207795 42.58205843 33 48 C32.67 48 32.34 48 32 48 C32 35.13 32 22.26 32 9 C31.34 9 30.68 9 30 9 C30 6.69 30 4.38 30 2 C20.43 2 10.86 2 1 2 C1.33 3.65 1.66 5.3 2 7 C3.98 7 5.96 7 8 7 C8 7.66 8 8.32 8 9 C5.69 9.33 3.38 9.66 1 10 C1 13.3 1 16.6 1 20 C0.34 20 -0.32 20 -1 20 C-1.16808419 17.89594609 -1.33441948 15.79175242 -1.5 13.6875 C-1.5928125 12.51574219 -1.685625 11.34398437 -1.78125 10.13671875 C-2.07271594 5.95730541 -2.01721975 3.6562108 0 0 Z " fill="#B57768" transform="translate(279,237)"/>
<path d="M0 0 C0 0.66 0 1.32 0 2 C0.78375 1.938125 1.5675 1.87625 2.375 1.8125 C3.674375 1.9053125 3.674375 1.9053125 5 2 C7.42130331 5.63195496 7.21022785 7.38349348 7.125 11.6875 C7.10695313 12.86699219 7.08890625 14.04648438 7.0703125 15.26171875 C7.03550781 16.61716797 7.03550781 16.61716797 7 18 C7.66 18.33 8.32 18.66 9 19 C8.01 19.66 7.02 20.32 6 21 C5.67 21.99 5.34 22.98 5 24 C4.34 24 3.68 24 3 24 C3 23.34 3 22.68 3 22 C1.68 21.67 0.36 21.34 -1 21 C-0.98839844 20.16855469 -0.97679687 19.33710938 -0.96484375 18.48046875 C-0.95582031 17.39378906 -0.94679688 16.30710938 -0.9375 15.1875 C-0.92589844 14.10855469 -0.91429687 13.02960938 -0.90234375 11.91796875 C-0.86375234 8.93487831 -0.86375234 8.93487831 -2 6 C-1.67 5.01 -1.34 4.02 -1 3 C-3.97 2.505 -3.97 2.505 -7 2 C-7 1.34 -7 0.68 -7 0 C-3.86650268 -1.04449911 -3.01031744 -0.93423645 0 0 Z " fill="#A72505" transform="translate(271,239)"/>
<path d="M0 0 C2.475 0.495 2.475 0.495 5 1 C6.13016601 6.02296004 5.77916092 9.97874074 5 15 C4.34 15 3.68 15 3 15 C3 10.71 3 6.42 3 2 C1.02 2.66 -0.96 3.32 -3 4 C-5.09962304 4.49613116 -7.20723687 4.95924462 -9.3203125 5.39453125 C-10.54524414 5.65057129 -11.77017578 5.90661133 -13.03222656 6.17041016 C-13.67824829 6.30481506 -14.32427002 6.43921997 -14.98986816 6.57769775 C-18.45358552 7.30537919 -21.91011404 8.06570872 -25.3671875 8.82421875 C-26.77994654 9.13346981 -28.19270696 9.44271459 -29.60546875 9.75195312 C-31.02864734 10.06379522 -32.4518244 10.37564426 -33.875 10.6875 C-35.35285837 11.0110961 -36.83072292 11.33466395 -38.30859375 11.65820312 C-41.87246688 12.43847794 -45.43625733 13.21912957 -49 14 C-47.68 14.66 -46.36 15.32 -45 16 C-50.28 16 -55.56 16 -61 16 C-61 15.67 -61 15.34 -61 15 C-58.36 14.67 -55.72 14.34 -53 14 C-53 13.34 -53 12.68 -53 12 C-48.46298506 10.54815522 -44.81938524 9.76490804 -40 10 C-40 9.34 -40 8.68 -40 8 C-39.21753906 7.93941406 -38.43507813 7.87882813 -37.62890625 7.81640625 C-36.61699219 7.73261719 -35.60507812 7.64882812 -34.5625 7.5625 C-33.55316406 7.48128906 -32.54382813 7.40007812 -31.50390625 7.31640625 C-29.06359221 7.26788532 -29.06359221 7.26788532 -28 6 C-25.47403741 5.76346477 -22.96892793 5.57826308 -20.4375 5.4375 C-19.37112305 5.37272461 -19.37112305 5.37272461 -18.28320312 5.30664062 C-16.52238088 5.20028223 -14.7612168 5.09961154 -13 5 C-13 4.34 -13 3.68 -13 3 C-6.565 2.505 -6.565 2.505 0 2 C0 1.34 0 0.68 0 0 Z " fill="#AB5640" transform="translate(384,123)"/>
<path d="M0 0 C1.0796553 -0.00459229 2.15931061 -0.00918457 3.27168274 -0.01391602 C9.61117058 -0.00139549 15.81968875 0.3591999 22.11328125 1.125 C22.11328125 1.455 22.11328125 1.785 22.11328125 2.125 C1.92234902 3.20929579 -18.23100236 3.24884339 -38.44335938 3.19366455 C-42.68163538 3.18323816 -46.91991785 3.17882657 -51.15820312 3.17382812 C-59.40105872 3.16326089 -67.64388393 3.1463078 -75.88671875 3.125 C-75.88671875 2.795 -75.88671875 2.465 -75.88671875 2.125 C-68.3998062 1.85862927 -60.91272107 1.59761876 -53.42541027 1.34269714 C-49.94538162 1.22405954 -46.46542488 1.10385391 -42.9855957 0.97949219 C-28.65864775 0.4687263 -14.33780804 0.03283396 0 0 Z " fill="#CA180B" transform="translate(373.88671875,224.875)"/>
<path d="M0 0 C0 5.28 0 10.56 0 16 C-0.33 16 -0.66 16 -1 16 C-1 11.05 -1 6.1 -1 1 C-3.31 1.33 -5.62 1.66 -8 2 C-8.763125 2.061875 -9.52625 2.12375 -10.3125 2.1875 C-12.37875764 2.95015534 -12.37875764 2.95015534 -13.25 6.0625 C-13.4975 7.031875 -13.745 8.00125 -14 9 C-14.66 9 -15.32 9 -16 9 C-16.66 10.65 -17.32 12.3 -18 14 C-18.66 14 -19.32 14 -20 14 C-19.67 20.93 -19.34 27.86 -19 35 C-18.01 35 -17.02 35 -16 35 C-16.99 37.475 -16.99 37.475 -18 40 C-19.32 40 -20.64 40 -22 40 C-22.08816905 36.35432287 -22.14077948 32.70892526 -22.1875 29.0625 C-22.21263672 28.04091797 -22.23777344 27.01933594 -22.26367188 25.96679688 C-22.33866637 18.142371 -21.76245723 11.25828288 -16.5625 5.125 C-15.716875 4.42375 -14.87125 3.7225 -14 3 C-13.01 2.13375 -13.01 2.13375 -12 1.25 C-7.70799601 -1.43250249 -4.95795565 -0.99159113 0 0 Z " fill="#A85940" transform="translate(243,119)"/>
<path d="M0 0 C0.9075 0.00257813 1.815 0.00515625 2.75 0.0078125 C4.11125 0.00394531 4.11125 0.00394531 5.5 0 C7.75 0.1328125 7.75 0.1328125 8.75 1.1328125 C8.84311889 2.63699989 8.86746028 4.14552606 8.86352539 5.65258789 C8.86344986 6.61350845 8.86337433 7.57442902 8.86329651 8.56446838 C8.85813522 9.6092485 8.85297394 10.65402863 8.84765625 11.73046875 C8.8462413 12.79446396 8.84482635 13.85845917 8.84336853 14.95469666 C8.83775064 18.36826333 8.82519511 21.7817655 8.8125 25.1953125 C8.80748731 27.50325426 8.802924 29.81119705 8.79882812 32.11914062 C8.78777539 37.79038961 8.77049877 43.4615901 8.75 49.1328125 C5.12 49.1328125 1.49 49.1328125 -2.25 49.1328125 C-4.23 45.1728125 -6.21 41.2128125 -8.25 37.1328125 C-6.93 37.1328125 -5.61 37.1328125 -4.25 37.1328125 C-3.940625 38.0815625 -3.63125 39.0303125 -3.3125 40.0078125 C-2.37605258 42.99361658 -2.37605258 42.99361658 -1.25 45.1328125 C-1.58 45.7928125 -1.91 46.4528125 -2.25 47.1328125 C1.05 47.4628125 4.35 47.7928125 7.75 48.1328125 C7.75 32.9528125 7.75 17.7728125 7.75 2.1328125 C4.45 2.1328125 1.15 2.1328125 -2.25 2.1328125 C-2.25 8.7328125 -2.25 15.3328125 -2.25 22.1328125 C-2.91 21.8028125 -3.57 21.4728125 -4.25 21.1328125 C-4.11179731 17.8199473 -3.96316222 14.50763261 -3.8125 11.1953125 C-3.77318359 10.24978516 -3.73386719 9.30425781 -3.69335938 8.33007812 C-3.65146484 7.43095703 -3.60957031 6.53183594 -3.56640625 5.60546875 C-3.51141968 4.35648804 -3.51141968 4.35648804 -3.45532227 3.08227539 C-3.15833116 0.26244905 -2.84363903 0.16785369 0 0 Z " fill="#B9705E" transform="translate(393.25,236.8671875)"/>
<path d="M0 0 C0 3 0 3 -1.6796875 4.82421875 C-2.40414062 5.43910156 -3.12859375 6.05398437 -3.875 6.6875 C-4.59429687 7.31011719 -5.31359375 7.93273437 -6.0546875 8.57421875 C-8 10 -8 10 -10 10 C-9.9830307 10.8703035 -9.9660614 11.74060699 -9.94857788 12.63728333 C-9.79058769 20.8330828 -9.6423876 29.02898792 -9.50522423 37.22516346 C-9.43435814 41.43904899 -9.35968784 45.65279595 -9.27636719 49.86645508 C-9.19611999 53.93172679 -9.12580874 57.99705936 -9.06242752 62.06262779 C-9.036474 63.61484817 -9.00692101 65.16701262 -8.97373581 66.71909523 C-8.927918 68.89057358 -8.89482274 71.06189719 -8.86474609 73.23364258 C-8.83143692 75.08896355 -8.83143692 75.08896355 -8.79745483 76.98176575 C-9 80 -9 80 -11 83 C-11.16245876 73.34230843 -11.28670342 63.68508979 -11.3626852 54.02632809 C-11.3991602 49.54090421 -11.44860264 45.05641764 -11.52807617 40.5715332 C-11.60434524 36.24019274 -11.64603341 31.90975154 -11.6641407 27.57779121 C-11.67703779 25.92831838 -11.70222444 24.27889273 -11.7401104 22.62980461 C-12.06081676 8.08684664 -12.06081676 8.08684664 -7.70727539 3.49438477 C-5.23720432 1.49273631 -3.11261966 0.6056994 0 0 Z " fill="#8E2F17" transform="translate(252,131)"/>
<path d="M0 0 C4.75363496 -0.33164895 7.04395793 0.43391866 11 3 C11.99 3 12.98 3 14 3 C14.99 6.3 15.98 9.6 17 13 C16.01 13.495 16.01 13.495 15 14 C13.31503702 13.03114628 11.64821244 12.03013277 10 11 C9.34 11 8.68 11 8 11 C7.34 10.01 6.68 9.02 6 8 C5.01 7.67 4.02 7.34 3 7 C3 6.34 3 5.68 3 5 C1.35 5 -0.3 5 -2 5 C-1.34 3.35 -0.68 1.7 0 0 Z " fill="#A72605" transform="translate(227,239)"/>
<path d="M0 0 C3.74138201 3.02873782 5.59786166 7.32365493 6.30029297 11.99853516 C6.43763368 14.11297848 6.46673867 16.19389446 6.4375 18.3125 C6.43282715 19.05435547 6.4281543 19.79621094 6.42333984 20.56054688 C6.26383189 26.51032321 5.24091187 31.89024114 2 37 C1.01 37.495 1.01 37.495 0 38 C0 35.69 0 33.38 0 31 C0.66 31 1.32 31 2 31 C2.06058594 30.36191406 2.12117187 29.72382813 2.18359375 29.06640625 C2.30927734 27.82697266 2.30927734 27.82697266 2.4375 26.5625 C2.51871094 25.73878906 2.59992188 24.91507812 2.68359375 24.06640625 C3 22 3 22 4 21 C3.52545762 13.76322869 1.88043224 6.98953117 0 0 Z " fill="#9E3219" transform="translate(241,243)"/>
<path d="M0 0 C0.65355469 0.14308594 1.30710937 0.28617188 1.98046875 0.43359375 C6.10788385 1.2078178 10.12409042 1.105475 14.3125 1.0625 C15.56643555 1.05573242 15.56643555 1.05573242 16.84570312 1.04882812 C18.89716649 1.03710548 20.94859273 1.01917203 23 1 C23 1.33 23 1.66 23 2 C18.81915435 2.79207686 14.88014108 3.12220437 10.62744141 3.11352539 C9.38660797 3.11344986 8.14577454 3.11337433 6.86734009 3.11329651 C5.52874714 3.10819113 4.19015461 3.10297515 2.8515625 3.09765625 C1.47008312 3.09578906 0.08860308 3.09436658 -1.2928772 3.09336853 C-4.91288103 3.08956702 -8.53284417 3.07975716 -12.15283203 3.06866455 C-15.85318451 3.05839935 -19.55354361 3.05386 -23.25390625 3.04882812 C-30.50262264 3.03813258 -37.7513056 3.02108485 -45 3 C-45 2.67 -45 2.34 -45 2 C-44.45098526 1.98969254 -43.90197052 1.97938507 -43.33631897 1.96876526 C-37.64278719 1.86092053 -31.94942079 1.74630551 -26.25610352 1.62768555 C-24.12885993 1.58426577 -22.0015799 1.54259607 -19.87426758 1.50268555 C-16.82361849 1.44515293 -13.77315411 1.38141033 -10.72265625 1.31640625 C-9.76537125 1.29969376 -8.80808624 1.28298126 -7.8217926 1.26576233 C-6.50053627 1.2358445 -6.50053627 1.2358445 -5.15258789 1.20532227 C-4.37315323 1.18977798 -3.59371857 1.1742337 -2.79066467 1.15821838 C-0.97706647 1.19110881 -0.97706647 1.19110881 0 0 Z " fill="#9A2F15" transform="translate(317,224)"/>
<path d="M0 0 C0.33 0 0.66 0 1 0 C0.98839844 0.83144531 0.97679687 1.66289062 0.96484375 2.51953125 C0.95582031 3.60621094 0.94679687 4.69289062 0.9375 5.8125 C0.92589844 6.89144531 0.91429687 7.97039062 0.90234375 9.08203125 C0.86375234 12.06512169 0.86375234 12.06512169 2 15 C1.67 15.99 1.34 16.98 1 18 C0.77439324 20.39254576 0.59151405 22.78928123 0.4375 25.1875 C0.35371094 26.45980469 0.26992187 27.73210937 0.18359375 29.04296875 C0.12300781 30.01878906 0.06242188 30.99460938 0 32 C0.66 32.33 1.32 32.66 2 33 C-1.875 32.125 -1.875 32.125 -3 31 C-2.96060479 28.42112915 -2.85365073 25.88409162 -2.6875 23.3125 C-2.64117432 22.55461182 -2.59484863 21.79672363 -2.54711914 21.01586914 C-2.07364756 13.94777306 -1.14137461 6.99230463 0 0 Z " fill="#A9442B" transform="translate(212,195)"/>
<path d="M0 0 C1 1 1 1 1.11352539 2.76586914 C1.10828857 3.51473389 1.10305176 4.26359863 1.09765625 5.03515625 C1.09443359 5.84404297 1.09121094 6.65292969 1.08789062 7.48632812 C1.07951172 8.33646484 1.07113281 9.18660156 1.0625 10.0625 C1.05798828 10.91650391 1.05347656 11.77050781 1.04882812 12.65039062 C1.03700373 14.76695663 1.01906769 16.88348685 1 19 C0.34 19 -0.32 19 -1 19 C-1 13.72 -1 8.44 -1 3 C-9.415 3.495 -9.415 3.495 -18 4 C-18 3.67 -18 3.34 -18 3 C-17.31292969 2.86722656 -16.62585938 2.73445313 -15.91796875 2.59765625 C-14.56638672 2.33275391 -14.56638672 2.33275391 -13.1875 2.0625 C-11.84751953 1.80146484 -11.84751953 1.80146484 -10.48046875 1.53515625 C-2.70506485 -0.14237183 -2.70506485 -0.14237183 0 0 Z " fill="#BD793C" transform="translate(402,104)"/>
<path d="M0 0 C5.14236976 0.46164456 9.61415933 0.39529541 14.6875 -0.5 C15.0175 0.16 15.3475 0.82 15.6875 1.5 C14.3675 1.5 13.0475 1.5 11.6875 1.5 C11.6875 2.16 11.6875 2.82 11.6875 3.5 C-6.16899203 3.68451025 -6.16899203 3.68451025 -14.3125 2.5 C-9.47294043 -0.72637305 -5.67586501 -0.59817499 0 0 Z " fill="#B25D46" transform="translate(299.3125,135.5)"/>
<path d="M0 0 C0.33 0 0.66 0 1 0 C1.13277344 0.98742187 1.26554687 1.97484375 1.40234375 2.9921875 C1.57894531 4.27351563 1.75554687 5.55484375 1.9375 6.875 C2.11152344 8.15117187 2.28554688 9.42734375 2.46484375 10.7421875 C2.81433227 13.87559454 2.81433227 13.87559454 4 16 C2.02 16.99 2.02 16.99 0 18 C-0.33 17.34 -0.66 16.68 -1 16 C-1.99 16 -2.98 16 -4 16 C-3.67 13.03 -3.34 10.06 -3 7 C-2.67 7 -2.34 7 -2 7 C-1.34 4.69 -0.68 2.38 0 0 Z " fill="#A33014" transform="translate(338,265)"/>
<path d="M0 0 C0.66 0.66 1.32 1.32 2 2 C1.7578125 4.35546875 1.7578125 4.35546875 1.125 7.1875 C-0.00628152 12.77822027 -0.44103014 17.66254027 0.625 23.3125 C0.810625 24.6428125 0.810625 24.6428125 1 26 C0.34 26.66 -0.32 27.32 -1 28 C-5.01535055 18.71450185 -3.07597144 9.22791431 0 0 Z " fill="#AB5B49" transform="translate(329,246)"/>
<path d="M0 0 C0.66 0 1.32 0 2 0 C2 4.95 2 9.9 2 15 C2.99 15 3.98 15 5 15 C5.33 18.96 5.66 22.92 6 27 C1.21696108 22.21696108 0.14493414 16.91378006 -0.1875 10.23046875 C-0.1875 6.81495815 -0.13277245 3.41274376 0 0 Z " fill="#A75744" transform="translate(209,254)"/>
<path d="M0 0 C0.38133299 1.9914056 0.71325582 3.99279077 1 6 C0.67 6.33 0.34 6.66 0 7 C-0.22513101 8.33802186 -0.39360807 9.68573023 -0.53515625 11.03515625 C-0.62216797 11.84404297 -0.70917969 12.65292969 -0.79882812 13.48632812 C-0.88583984 14.33646484 -0.97285156 15.18660156 -1.0625 16.0625 C-1.15337891 16.91650391 -1.24425781 17.77050781 -1.33789062 18.65039062 C-1.56250722 20.76651535 -1.78175227 22.88320894 -2 25 C-2.99 25.33 -3.98 25.66 -5 26 C-4.7525 25.02933594 -4.7525 25.02933594 -4.5 24.0390625 C-3.85524882 20.12018425 -3.93239024 16.33693178 -4 12.375 C-4.1346463 4.40393891 -4.1346463 4.40393891 -3 1 C-1 0 -1 0 0 0 Z " fill="#9B341C" transform="translate(238,249)"/>
<path d="M0 0 C0.66 0 1.32 0 2 0 C2 3.3 2 6.6 2 10 C1.34 10 0.68 10 0 10 C-1.88391785 13.26545761 -2.49287967 16.28111761 -3 20 C-3.33 20 -3.66 20 -4 20 C-4.58179863 12.40429561 -3.26889853 6.85884959 0 0 Z " fill="#A13B22" transform="translate(220,172)"/>
<path d="M0 0 C0.33 0.66 0.66 1.32 1 2 C1.99 2.33 2.98 2.66 4 3 C0.64372507 6.71587581 -1.42914812 7.73731664 -6.33203125 8.23828125 C-12.48872997 8.42249743 -15.98362326 7.62886828 -21 4 C-21.33 3.34 -21.66 2.68 -22 2 C-20.02 2.66 -18.04 3.32 -16 4 C-16 4.66 -16 5.32 -16 6 C-7.585 5.505 -7.585 5.505 1 5 C0.67 3.35 0.34 1.7 0 0 Z " fill="#A75A45" transform="translate(237,279)"/>
<path d="M0 0 C0.95777344 0.17015625 1.91554688 0.3403125 2.90234375 0.515625 C5.60314562 1.00225597 8.30211169 1.49750001 11 2 C9 4 9 4 6.87109375 4.23046875 C6.06800781 4.21628906 5.26492188 4.20210938 4.4375 4.1875 C3.63183594 4.18105469 2.82617188 4.17460938 1.99609375 4.16796875 C0 4 0 4 -1 3 C-2.68608966 2.92794489 -4.37500659 2.91613932 -6.0625 2.9375 C-6.98160156 2.94652344 -7.90070313 2.95554687 -8.84765625 2.96484375 C-9.55792969 2.97644531 -10.26820313 2.98804687 -11 3 C-10.67 2.01 -10.34 1.02 -10 0 C-6.34563783 -1.21812072 -3.68796286 -0.65974291 0 0 Z " fill="#A54E36" transform="translate(301,105)"/>
<path d="M0 0 C1.65 0 3.3 0 5 0 C3.68 0.33 2.36 0.66 1 1 C1 6.28 1 11.56 1 17 C-1.52053595 18.26026798 -2.8542098 17.91874445 -5.625 17.5625 C-6.44226563 17.46066406 -7.25953125 17.35882813 -8.1015625 17.25390625 C-8.72804687 17.17011719 -9.35453125 17.08632813 -10 17 C-10 16.34 -10 15.68 -10 15 C-8.5459375 14.814375 -8.5459375 14.814375 -7.0625 14.625 C-6.051875 14.41875 -5.04125 14.2125 -4 14 C-3.67 13.34 -3.34 12.68 -3 12 C-2.34 12 -1.68 12 -1 12 C-0.67 8.04 -0.34 4.08 0 0 Z " fill="#A53F2A" transform="translate(261,269)"/>
<path d="M0 0 C0.73863281 0.23074219 1.47726562 0.46148437 2.23828125 0.69921875 C0.23828125 2.69921875 0.23828125 2.69921875 -1.76171875 3.57421875 C-3.93135775 4.52128344 -3.93135775 4.52128344 -4.57421875 6.69921875 C-5.76171875 8.69921875 -5.76171875 8.69921875 -9.38671875 9.94921875 C-10.50046875 10.19671875 -11.61421875 10.44421875 -12.76171875 10.69921875 C-11.33415985 7.39753123 -9.60655818 5.30017234 -6.94921875 2.88671875 C-6.28277344 2.26152344 -5.61632812 1.63632813 -4.9296875 0.9921875 C-2.76171875 -0.30078125 -2.76171875 -0.30078125 0 0 Z " fill="#A83F2A" transform="translate(283.76171875,138.30078125)"/>
<path d="M0 0 C1.32 0.33 2.64 0.66 4 1 C4 1.66 4 2.32 4 3 C3.34 3 2.68 3 2 3 C2 3.99 2 4.98 2 6 C2.99 5.34 3.98 4.68 5 4 C5.99 4 6.98 4 8 4 C8 4.66 8 5.32 8 6 C1.77104914 7.13253652 -2.91748904 6.70366626 -9 5 C-8 3 -8 3 -6.15234375 2.3671875 C-5.42144531 2.20476562 -4.69054687 2.04234375 -3.9375 1.875 C-3.20402344 1.70742187 -2.47054688 1.53984375 -1.71484375 1.3671875 C-1.14894531 1.24601563 -0.58304687 1.12484375 0 1 C0 0.67 0 0.34 0 0 Z " fill="#9D2D11" transform="translate(323,131)"/>
<path d="M0 0 C1.12148437 -0.02578125 2.24296875 -0.0515625 3.3984375 -0.078125 C6.94085696 0.28212105 8.8212621 1.08681645 11.625 3.25 C11.625 3.91 11.625 4.57 11.625 5.25 C10.635 5.58 9.645 5.91 8.625 6.25 C8.625 5.59 8.625 4.93 8.625 4.25 C4.87100202 3.0460663 1.29282588 3.15122383 -2.625 3.1875 C-4.51992187 3.20103516 -4.51992187 3.20103516 -6.453125 3.21484375 C-7.41734375 3.22644531 -8.3815625 3.23804688 -9.375 3.25 C-9.375 2.59 -9.375 1.93 -9.375 1.25 C-6.07164934 0.14888311 -3.47667863 0.04773472 0 0 Z " fill="#A14D37" transform="translate(228.375,236.75)"/>
<path d="M0 0 C-0.50603992 2.16874252 -0.99983813 3.99967627 -2 6 C-2.27358115 8.85306062 -2.44625242 11.70570456 -2.62109375 14.56640625 C-2.74613281 15.36949219 -2.87117188 16.17257812 -3 17 C-3.66 17.33 -4.32 17.66 -5 18 C-5.2757817 15.56292912 -5.52131492 13.12904951 -5.75 10.6875 C-5.87181641 9.65206055 -5.87181641 9.65206055 -5.99609375 8.59570312 C-6.171875 6.57421875 -6.171875 6.57421875 -6 3 C-3.96865918 0.83636597 -2.98285233 0 0 0 Z " fill="#9E402A" transform="translate(342,246)"/>
<path d="M0 0 C0 0.33 0 0.66 0 1 C-3.3 1.66 -6.6 2.32 -10 3 C-8.68 3.66 -7.36 4.32 -6 5 C-11.28 5 -16.56 5 -22 5 C-22 4.67 -22 4.34 -22 4 C-19.36 3.67 -16.72 3.34 -14 3 C-14 2.34 -14 1.68 -14 1 C-9.22426677 -1.61895048 -5.15565119 -0.83119431 0 0 Z " fill="#CB7765" transform="translate(345,134)"/>
<path d="M0 0 C0 5.28 0 10.56 0 16 C-0.33 16 -0.66 16 -1 16 C-1 11.05 -1 6.1 -1 1 C-6.6006701 1.76114525 -6.6006701 1.76114525 -12 3 C-12 3.66 -12 4.32 -12 5 C-13.32 5.33 -14.64 5.66 -16 6 C-16 5.34 -16 4.68 -16 4 C-10.23630814 -0.4232984 -7.10708481 -1.42141696 0 0 Z " fill="#C28B74" transform="translate(243,119)"/>
<path d="M0 0 C4.875 0.875 4.875 0.875 6 2 C6.12494616 3.62139437 6.17571624 5.24884122 6.1875 6.875 C6.20167969 7.75929687 6.21585937 8.64359375 6.23046875 9.5546875 C6 12 6 12 4 15 C0.375 15.1875 0.375 15.1875 -3 15 C-3 14.67 -3 14.34 -3 14 C-1.35 14 0.3 14 2 14 C3.18823797 10.43528609 3.26274852 7.7441664 3 4 C1.64114884 1.59916562 1.64114884 1.59916562 0 0 Z " fill="#A34E34" transform="translate(265,246)"/>
<path d="M0 0 C2.625 0.9375 2.625 0.9375 5 2 C4.67 2.99 4.34 3.98 4 5 C3.34 5 2.68 5 2 5 C2 6.32 2 7.64 2 9 C1.01 9.33 0.02 9.66 -1 10 C-2 9 -2 9 -2.09765625 7.15234375 C-2.06510417 5.1015625 -2.03255208 3.05078125 -2 1 C-1.34 0.67 -0.68 0.34 0 0 Z " fill="#A12706" transform="translate(225,145)"/>
<path d="M0 0 C-0.33 0.66 -0.66 1.32 -1 2 C-7.00303918 3.08464003 -12.91517008 3.12325483 -19 3.0625 C-19.87011719 3.05798828 -20.74023438 3.05347656 -21.63671875 3.04882812 C-23.75784293 3.0371736 -25.8789311 3.01924357 -28 3 C-28 2.67 -28 2.34 -28 2 C-18.88035451 -0.0399207 -9.31339986 -0.16057586 0 0 Z " fill="#A33C21" transform="translate(401,107)"/>
<path d="M0 0 C3.75882915 3.04286169 5.71354915 7.42774684 6.2409668 12.16381836 C6.29358699 14.42895728 6.26317336 16.67312024 6.1875 18.9375 C6.17396484 19.71673828 6.16042969 20.49597656 6.14648438 21.29882812 C6.11150224 23.19952404 6.05770959 25.09985834 6 27 C5.67 27 5.34 27 5 27 C4.97421875 26.28457031 4.9484375 25.56914062 4.921875 24.83203125 C4.51409932 17.66815397 3.12988199 11.41395578 0.83984375 4.6171875 C0 2 0 2 0 0 Z " fill="#9E523E" transform="translate(241,243)"/>
<path d="M0 0 C0.33 0.99 0.66 1.98 1 3 C0 4 -1 5 -2 6 C-2.45375 6.495 -2.9075 6.99 -3.375 7.5 C-5.44071049 9.40680969 -7.48576573 10.74288287 -10 12 C-10.99 11.67 -11.98 11.34 -13 11 C-11.39801112 9.53927468 -9.79332884 8.08150284 -8.1875 6.625 C-7.29417969 5.81289062 -6.40085938 5.00078125 -5.48046875 4.1640625 C-3 2 -3 2 0 0 Z " fill="#AB563E" transform="translate(262,120)"/>
<path d="M0 0 C0 3 0 3 -1.75 4.82421875 C-2.4925 5.43910156 -3.235 6.05398437 -4 6.6875 C-4.7425 7.31011719 -5.485 7.93273437 -6.25 8.57421875 C-6.8275 9.04472656 -7.405 9.51523438 -8 10 C-8.99 9.34 -9.98 8.68 -11 8 C-9.92643323 6.84501103 -8.84070212 5.70132133 -7.75 4.5625 C-7.14671875 3.92441406 -6.5434375 3.28632813 -5.921875 2.62890625 C-3.89951984 0.91483694 -2.58729395 0.40641122 0 0 Z " fill="#A43921" transform="translate(252,131)"/>
<path d="M0 0 C1.17046875 0.01804688 2.3409375 0.03609375 3.546875 0.0546875 C4.88492187 0.08949219 4.88492187 0.08949219 6.25 0.125 C6.25 0.455 6.25 0.785 6.25 1.125 C2.62 1.125 -1.01 1.125 -4.75 1.125 C-4.75 1.785 -4.75 2.445 -4.75 3.125 C-12.17857143 7.41071429 -12.17857143 7.41071429 -15.75 9.125 C-15.01121661 7.9926025 -14.25841355 6.8693453 -13.5 5.75 C-13.08234375 5.12351563 -12.6646875 4.49703125 -12.234375 3.8515625 C-8.73471147 -0.21909877 -5.15934932 -0.10318699 0 0 Z " fill="#A15140" transform="translate(345.75,236.875)"/>
<path d="M0 0 C0.99 0 1.98 0 3 0 C2.68795779 3.43246436 2.35261037 5.53405058 0.25 8.3125 C-2.26414437 10.19810828 -3.86978448 10.83525181 -7 11 C-7.66 10.34 -8.32 9.68 -9 9 C-7.02 9 -5.04 9 -3 9 C-3.66 7.68 -4.32 6.36 -5 5 C-3.35 4.67 -1.7 4.34 0 4 C0 2.68 0 1.36 0 0 Z " fill="#AA513B" transform="translate(276,258)"/>
<path d="M0 0 C0.99 0.33 1.98 0.66 3 1 C2.01 1.33 1.02 1.66 0 2 C0 6.29 0 10.58 0 15 C-0.66 15 -1.32 15 -2 15 C-3.13112344 9.97278473 -2.93493027 6.01462597 -2 1 C-1.34 0.67 -0.68 0.34 0 0 Z " fill="#A3331C" transform="translate(262,245)"/>
<path d="M0 0 C0 0.66 0 1.32 0 2 C1.65 2 3.3 2 5 2 C5.66 3.65 6.32 5.3 7 7 C5.35 6.01 3.7 5.02 2 4 C1.01 4.66 0.02 5.32 -1 6 C-1 5.01 -1 4.02 -1 3 C-3.97 2.505 -3.97 2.505 -7 2 C-7 1.34 -7 0.68 -7 0 C-3.86650268 -1.04449911 -3.01031744 -0.93423645 0 0 Z " fill="#A02A0B" transform="translate(271,239)"/>
<path d="M0 0 C2.475 0.495 2.475 0.495 5 1 C6.13016601 6.02296004 5.77916092 9.97874074 5 15 C4.34 15 3.68 15 3 15 C3 10.71 3 6.42 3 2 C2.01 2 1.02 2 0 2 C0 1.34 0 0.68 0 0 Z " fill="#993E28" transform="translate(384,123)"/>
<path d="M0 0 C1.32 0 2.64 0 4 0 C4.309375 0.94875 4.61875 1.8975 4.9375 2.875 C5.87394742 5.86080408 5.87394742 5.86080408 7 8 C6.67 8.66 6.34 9.32 6 10 C9.3 10.33 12.6 10.66 16 11 C16 11.33 16 11.66 16 12 C12.7 12 9.4 12 6 12 C4.02 8.04 2.04 4.08 0 0 Z " fill="#9C432E" transform="translate(385,274)"/>
<path d="M0 0 C0.66 0 1.32 0 2 0 C1.47731534 2.76276177 0.89130413 5.3260876 0 8 C-2.31 7.67 -4.62 7.34 -7 7 C-6.25 5.0625 -6.25 5.0625 -5 3 C-2.9375 2.375 -2.9375 2.375 -1 2 C-0.67 1.34 -0.34 0.68 0 0 Z " fill="#A33A15" transform="translate(361,271)"/>
<path d="M0 0 C-0.33 1.32 -0.66 2.64 -1 4 C-1.556875 4.12375 -2.11375 4.2475 -2.6875 4.375 C-5.22114364 5.05976855 -7.57921032 5.99133763 -10 7 C-8.6875 3.5625 -8.6875 3.5625 -7 0 C-3.86650268 -1.04449911 -3.01031744 -0.93423645 0 0 Z " fill="#A82502" transform="translate(238,122)"/>
<path d="M0 0 C1.65 0 3.3 0 5 0 C5.33 2.31 5.66 4.62 6 7 C5.01 7.33 4.02 7.66 3 8 C1.33333333 6.33333333 -0.33333333 4.66666667 -2 3 C-1.01 3 -0.02 3 1 3 C0.67 2.01 0.34 1.02 0 0 Z " fill="#A72404" transform="translate(346,239)"/>
<path d="M0 0 C-0.33 1.32 -0.66 2.64 -1 4 C-1.66 4 -2.32 4 -3 4 C-3.66 5.65 -4.32 7.3 -5 9 C-5.66 9 -6.32 9 -7 9 C-7.33 9.99 -7.66 10.98 -8 12 C-7.74297526 7.6305794 -7.39976667 5.48177009 -4.5625 2.0625 C-2 0 -2 0 0 0 Z " fill="#A3462E" transform="translate(230,124)"/>
<path d="M0 0 C0.66 0.33 1.32 0.66 2 1 C1.31164062 1.67095703 1.31164062 1.67095703 0.609375 2.35546875 C-2.83552299 5.74970648 -6.07255085 9.13576712 -9 13 C-8.67 10.69 -8.34 8.38 -8 6 C-6.68 5.67 -5.36 5.34 -4 5 C-3.8453125 4.0409375 -3.8453125 4.0409375 -3.6875 3.0625 C-3.460625 2.381875 -3.23375 1.70125 -3 1 C-2.01 0.67 -1.02 0.34 0 0 Z " fill="#AC5943" transform="translate(265,131)"/>
<path d="M0 0 C3.16115776 1.36983503 3.9927092 1.9890638 6 5 C5.67 5.66 5.34 6.32 5 7 C2.03 6.505 2.03 6.505 -1 6 C-0.67 4.02 -0.34 2.04 0 0 Z " fill="#9D3519" transform="translate(352,238)"/>
<path d="M0 0 C0.33 0 0.66 0 1 0 C1.99 2.97 2.98 5.94 4 9 C8.14093698 9.20970559 8.14093698 9.20970559 12 8 C11.67 9.32 11.34 10.64 11 12 C8.03 11.67 5.06 11.34 2 11 C0.19769832 7.17010894 -0.19622241 4.21878192 0 0 Z " fill="#AF664E" transform="translate(221,267)"/>
<path d="M0 0 C0.33 0 0.66 0 1 0 C1.33 5.61 1.66 11.22 2 17 C2.66 17.33 3.32 17.66 4 18 C0.125 17.125 0.125 17.125 -1 16 C-0.909084 13.29891496 -0.76259234 10.63069689 -0.5625 7.9375 C-0.51029297 7.17888672 -0.45808594 6.42027344 -0.40429688 5.63867188 C-0.27424165 3.75878278 -0.13771962 1.87934315 0 0 Z " fill="#B95D50" transform="translate(210,210)"/>
<path d="M0 0 C0.99 0 1.98 0 3 0 C3.28875 0.969375 3.5775 1.93875 3.875 2.9375 C4.64214682 6.10664203 4.64214682 6.10664203 7 7 C6.01 7.495 6.01 7.495 5 8 C2.96855359 7.06553465 0.96466413 6.06775224 -1 5 C-0.67 3.35 -0.34 1.7 0 0 Z " fill="#A23C22" transform="translate(312,120)"/>
<path d="M0 0 C4.875 1.75 4.875 1.75 6 4 C4.35 3.67 2.7 3.34 1 3 C0.54625 3.825 0.0925 4.65 -0.375 5.5 C-0.91125 6.325 -1.4475 7.15 -2 8 C-2.66 8 -3.32 8 -4 8 C-4.33 8.66 -4.66 9.32 -5 10 C-5 8.35 -5 6.7 -5 5 C-4.01 5 -3.02 5 -2 5 C-1.34 3.35 -0.68 1.7 0 0 Z " fill="#B66454" transform="translate(318,182)"/>
<path d="M0 0 C-1.32 0.33 -2.64 0.66 -4 1 C-4 1.66 -4 2.32 -4 3 C-7.3 3 -10.6 3 -14 3 C-14 2.67 -14 2.34 -14 2 C-12.35 2 -10.7 2 -9 2 C-9 1.34 -9 0.68 -9 0 C-5.62182575 -0.84454356 -3.32534757 -1.10844919 0 0 Z " fill="#A84F3D" transform="translate(315,136)"/>
<path d="M0 0 C1.60597325 0.45196245 3.20972508 0.91182327 4.8125 1.375 C6.15248047 1.75785156 6.15248047 1.75785156 7.51953125 2.1484375 C10 3 10 3 13 5 C10.44855176 5.93045933 9.25993522 6.08564091 6.640625 5.22265625 C5.85171875 4.83980469 5.0628125 4.45695313 4.25 4.0625 C3.45078125 3.68222656 2.6515625 3.30195313 1.828125 2.91015625 C1.22484375 2.60980469 0.6215625 2.30945313 0 2 C0 1.34 0 0.68 0 0 Z " fill="#AE614D" transform="translate(274,207)"/>
<path d="M0 0 C0.66 0 1.32 0 2 0 C2 0.66 2 1.32 2 2 C2.66 2 3.32 2 4 2 C4.66 3.98 5.32 5.96 6 8 C5.01 8.495 5.01 8.495 4 9 C0 3.375 0 3.375 0 0 Z " fill="#A34833" transform="translate(329,274)"/>
<path d="M0 0 C0.66 0 1.32 0 2 0 C3.20272819 2.40545638 3.10071472 3.94996953 3.0625 6.625 C3.05347656 7.44226563 3.04445313 8.25953125 3.03515625 9.1015625 C3.02355469 9.72804688 3.01195312 10.35453125 3 11 C2.34 10.67 1.68 10.34 1 10 C0.5859375 7.71484375 0.5859375 7.71484375 0.375 4.9375 C0.30023438 4.01839844 0.22546875 3.09929687 0.1484375 2.15234375 C0.09945313 1.44207031 0.05046875 0.73179687 0 0 Z " fill="#9D3F21" transform="translate(376,261)"/>
<path d="M0 0 C-0.66 1.32 -1.32 2.64 -2 4 C-4.875 4.125 -4.875 4.125 -8 4 C-8.66 3.34 -9.32 2.68 -10 2 C-8.71211992 1.46987262 -7.41953322 0.9511671 -6.125 0.4375 C-5.40570313 0.14746094 -4.68640625 -0.14257812 -3.9453125 -0.44140625 C-2 -1 -2 -1 0 0 Z " fill="#B05441" transform="translate(316,208)"/>
<path d="M0 0 C-0.33 0.66 -0.66 1.32 -1 2 C-3.28515625 2.6328125 -3.28515625 2.6328125 -6.0625 3.125 C-6.98160156 3.29257813 -7.90070313 3.46015625 -8.84765625 3.6328125 C-9.91306641 3.81457031 -9.91306641 3.81457031 -11 4 C-10.67 3.01 -10.34 2.02 -10 1 C-6.78548731 -0.60725635 -3.56387464 -0.05748185 0 0 Z " fill="#A2563D" transform="translate(288,121)"/>
<path d="M0 0 C0.33 0 0.66 0 1 0 C2.28571429 8.42857143 2.28571429 8.42857143 1 13 C0.34 13 -0.32 13 -1 13 C-0.67 8.71 -0.34 4.42 0 0 Z " fill="#A43113" transform="translate(220,259)"/>
<path d="M0 0 C0.33 1.32 0.66 2.64 1 4 C0.34 4 -0.32 4 -1 4 C-1.66 5.32 -2.32 6.64 -3 8 C-3.99 7.67 -4.98 7.34 -6 7 C-4.02 4.69 -2.04 2.38 0 0 Z " fill="#B15F4A" transform="translate(330,194)"/>
<path d="M0 0 C2 2 2 2 2.5 5.0625 C2.665 6.031875 2.83 7.00125 3 8 C3.66 8.33 4.32 8.66 5 9 C4.01 9 3.02 9 2 9 C0.25 6.75 0.25 6.75 -1 4 C-0.6875 1.6875 -0.6875 1.6875 0 0 Z " fill="#A34F3E" transform="translate(268,176)"/>
<path d="M0 0 C0.33 1.32 0.66 2.64 1 4 C-1.95664519 5.4783226 -4.74229737 5.06032783 -8 5 C-5.37352812 3.24901874 -2.71224618 1.61268692 0 0 Z " fill="#AD513C" transform="translate(271,115)"/>
<path d="M0 0 C0.66 0 1.32 0 2 0 C2.0825 0.61875 2.165 1.2375 2.25 1.875 C2.81258459 4.18437567 2.81258459 4.18437567 5.0625 5.25 C5.701875 5.4975 6.34125 5.745 7 6 C6.01 6.495 6.01 6.495 5 7 C4.67 7.99 4.34 8.98 4 10 C0 3.375 0 3.375 0 0 Z " fill="#B25F45" transform="translate(380,263)"/>
<path d="M0 0 C0.66 0.33 1.32 0.66 2 1 C0.71372289 2.17260611 -0.57919783 3.3379283 -1.875 4.5 C-2.59429687 5.1496875 -3.31359375 5.799375 -4.0546875 6.46875 C-6 8 -6 8 -8 8 C-8 7.34 -8 6.68 -8 6 C-6.25 4.4921875 -6.25 4.4921875 -4 2.875 C-3.2575 2.33617187 -2.515 1.79734375 -1.75 1.2421875 C-1.1725 0.83226562 -0.595 0.42234375 0 0 Z " fill="#9E2809" transform="translate(338,240)"/>
<path d="M0 0 C1.32 0 2.64 0 4 0 C3.34 1.65 2.68 3.3 2 5 C0.68 5 -0.64 5 -2 5 C-2 4.01 -2 3.02 -2 2 C-1.34 2 -0.68 2 0 2 C0 1.34 0 0.68 0 0 Z " fill="#A14C3B" transform="translate(223,154)"/>
<path d="M0 0 C1.32 0 2.64 0 4 0 C2.68775452 3.93673644 1.08089673 6.22719294 -2 9 C-2 7.68 -2 6.36 -2 5 C-1.34 4.67 -0.68 4.34 0 4 C0 2.68 0 1.36 0 0 Z " fill="#B3604C" transform="translate(229,145)"/>
<path d="M0 0 C1.32 0.33 2.64 0.66 4 1 C4 1.66 4 2.32 4 3 C0.0186217 4.3271261 -3.85045227 4.06915913 -8 4 C-8 3.67 -8 3.34 -8 3 C-5.36 2.34 -2.72 1.68 0 1 C0 0.67 0 0.34 0 0 Z " fill="#AC5338" transform="translate(323,131)"/>
<path d="M0 0 C-0.33 0.66 -0.66 1.32 -1 2 C-3.28515625 2.4140625 -3.28515625 2.4140625 -6.0625 2.625 C-6.98160156 2.69976562 -7.90070313 2.77453125 -8.84765625 2.8515625 C-9.55792969 2.90054688 -10.26820313 2.94953125 -11 3 C-7.65817252 -1.0165182 -4.96805907 -0.24433077 0 0 Z " fill="#A44E3B" transform="translate(364,129)"/>
<path d="M0 0 C1.32 0 2.64 0 4 0 C3.39816251 2.02045442 2.72693904 4.02111039 2 6 C1.01 6.495 1.01 6.495 0 7 C0 4.69 0 2.38 0 0 Z " fill="#A34C3A" transform="translate(241,274)"/>
<path d="M0 0 C1.69141656 0.08963062 3.37959602 0.24577676 5.0625 0.4375 C6.44115234 0.59025391 6.44115234 0.59025391 7.84765625 0.74609375 C8.55792969 0.82988281 9.26820313 0.91367187 10 1 C10 1.33 10 1.66 10 2 C7.36 2 4.72 2 2 2 C1.67 2.99 1.34 3.98 1 5 C0.34 3.68 -0.32 2.36 -1 1 C-0.67 0.67 -0.34 0.34 0 0 Z " fill="#96270E" transform="translate(259,267)"/>
<path d="M0 0 C0.66 0 1.32 0 2 0 C2 2.64 2 5.28 2 8 C0.02 8.99 0.02 8.99 -2 10 C-2 8.68 -2 7.36 -2 6 C-1.34 5.67 -0.68 5.34 0 5 C0 3.35 0 1.7 0 0 Z " fill="#9F2A0D" transform="translate(333,188)"/>
<path d="M0 0 C1.32 0 2.64 0 4 0 C4.66 2.31 5.32 4.62 6 7 C5.01 7 4.02 7 3 7 C2.01 4.69 1.02 2.38 0 0 Z " fill="#AA5944" transform="translate(385,274)"/>
<path d="M0 0 C0.33 0.99 0.66 1.98 1 3 C-1 6 -1 6 -3.125 6.6875 C-3.74375 6.790625 -4.3625 6.89375 -5 7 C-3.70700306 4.11562221 -2.34058637 2.12780579 0 0 Z " fill="#AC5846" transform="translate(276,142)"/>
<path d="M0 0 C0 0.66 0 1.32 0 2 C-2.31 2.33 -4.62 2.66 -7 3 C-7.33 2.34 -7.66 1.68 -8 1 C-5.29120665 -0.35439668 -2.99066732 -0.06501451 0 0 Z " fill="#A23D1B" transform="translate(287,244)"/>
</svg>
