<?xml version="1.0" encoding="UTF-8"?>
<!-- Generator: https://ezgif.com/png-to-svg -->
<svg version="1.1" xmlns="http://www.w3.org/2000/svg" width="198" height="186">
<path d="M0 0 C0.5 0.99 0.5 0.99 1 2 C1.66 1.67 2.32 1.34 3 1 C7.86 0.72 11.47 1.29 16 3 C19.55 4.08 23.06 4.3 26.75 4.56 C27.92 4.65 29.09 4.73 30.3 4.82 C31.19 4.88 32.08 4.94 33 5 C33 4.34 33 3.68 33 3 C33.79 3.21 34.58 3.43 35.4 3.65 C45.69 6.17 55.34 6.36 65.88 6.19 C67.55 6.17 69.22 6.16 70.89 6.15 C74.92 6.11 78.96 6.06 83 6 C83 5.01 83 4.02 83 3 C84.75 2.78 86.5 2.57 88.25 2.38 C89.22 2.26 90.2 2.14 91.2 2.02 C94.13 2 95.55 2.47 98 4 C97.34 5.32 96.68 6.64 96 8 C95.67 7.01 95.34 6.02 95 5 C93.68 5 92.36 5 91 5 C91 6.32 91 7.64 91 9 C93.33 9.42 93.33 9.42 96 9 C96.56 8.18 97.11 7.35 97.69 6.5 C100 4 100 4 102.44 3.74 C104.25 3.79 106.05 3.88 107.86 4.02 C108.56 4.01 109.27 4.01 110 4 C110.33 3.34 110.66 2.68 111 2 C112.91 3.91 112.25 7.33 112.32 9.87 C112.34 10.62 112.36 11.37 112.38 12.14 C112.45 14.72 112.51 17.3 112.56 19.88 C112.59 21.22 112.59 21.22 112.62 22.59 C113.07 42.9 113.14 63.22 113.18 83.54 C113.19 86.13 113.2 88.73 113.21 91.32 C113.22 95.44 113.23 99.56 113.23 103.68 C113.23 105.23 113.23 106.77 113.24 108.31 C113.25 110.44 113.25 112.56 113.24 114.68 C113.24 115.88 113.25 117.08 113.25 118.32 C113.12 119.65 113.12 119.65 113 121 C110.02 122.49 106.98 122.14 103.71 122.13 C102.95 122.13 102.19 122.13 101.41 122.13 C98.85 122.14 96.29 122.13 93.73 122.13 C91.9 122.13 90.07 122.13 88.24 122.13 C83.26 122.14 78.28 122.14 73.3 122.13 C68.1 122.13 62.9 122.13 57.7 122.14 C48.96 122.14 40.23 122.14 31.49 122.13 C21.38 122.12 11.27 122.13 1.15 122.13 C-7.51 122.14 -16.18 122.14 -24.85 122.13 C-30.04 122.13 -35.22 122.13 -40.4 122.14 C-45.28 122.14 -50.15 122.14 -55.02 122.13 C-56.81 122.13 -58.6 122.13 -60.4 122.13 C-62.84 122.14 -65.27 122.13 -67.71 122.13 C-68.79 122.13 -68.79 122.13 -69.88 122.13 C-74.77 122.11 -74.77 122.11 -77 121 C-77.27 118.02 -77.27 118.02 -77.25 114.25 C-77.26 113.02 -77.26 111.79 -77.27 110.52 C-77.01 107.19 -76.28 105.03 -75 102 C-75.33 101.34 -75.66 100.68 -76 100 C-76.04 97.67 -76.04 95.33 -76 93 C-73.62 92.75 -73.62 92.75 -71 93 C-67.81 97.61 -68.35 103.63 -68 109 C-57.61 108.5 -57.61 108.5 -47 108 C-47.02 105.81 -47.03 103.62 -47.05 101.36 C-47.1 94.13 -47.13 86.89 -47.16 79.65 C-47.17 75.27 -47.19 70.88 -47.23 66.49 C-47.26 62.26 -47.28 58.02 -47.28 53.79 C-47.29 52.17 -47.3 50.56 -47.32 48.94 C-47.34 46.68 -47.34 44.42 -47.34 42.16 C-47.35 40.87 -47.35 39.58 -47.36 38.25 C-46.98 34.82 -46.46 33.38 -44 31 C-43.34 31 -42.68 31 -42 31 C-42 30.34 -42 29.68 -42 29 C-40.43 28.18 -40.43 28.18 -38.31 27.31 C-32.83 24.71 -30.39 20.78 -27.73 15.47 C-25.56 12.37 -23.55 11.44 -20.12 9.88 C-16.27 8.09 -12.64 6.19 -9 4 C-7.41 3.24 -5.8 2.51 -4.19 1.81 C-3 1.3 -3 1.3 -1.79 0.77 C-1.2 0.52 -0.61 0.26 0 0 Z M-29 32 C-31.4 34.67 -31.4 34.67 -32 38 C-33.32 38 -34.64 38 -36 38 C-36.33 38.66 -36.66 39.32 -37 40 C-37.33 39.34 -37.66 38.68 -38 38 C-41.28 38.75 -41.28 38.75 -43 42 C-43.34 46.65 -43.34 46.65 -42 51 C-41.34 51 -40.68 51 -40 51 C-40.03 52.52 -40.03 52.52 -40.07 54.07 C-40.09 55.42 -40.11 56.77 -40.12 58.12 C-40.14 58.79 -40.16 59.46 -40.18 60.14 C-40.22 64.52 -39.59 67.93 -38 72 C-37.73 72.8 -37.46 73.6 -37.18 74.42 C-32.02 88.33 -23.05 97.31 -10 104 C0.44 107.89 13.78 107.43 24 103 C31.19 99.06 38.7 94.2 43 87 C43 85.68 43 84.36 43 83 C40.09 81.39 40.09 81.39 36.5 80.25 C35.29 79.82 34.09 79.39 32.84 78.95 C31.91 78.64 30.97 78.32 30 78 C27.66 80.67 27.66 80.67 27 84 C26.34 84 25.68 84 25 84 C25 84.66 25 85.32 25 86 C15.64 88.26 6.56 88.2 -3 88 C-2.9 87.37 -2.81 86.75 -2.71 86.1 C-2.6 85.28 -2.49 84.47 -2.38 83.62 C-2.26 82.81 -2.14 82 -2.02 81.16 C-2.02 80.45 -2.01 79.74 -2 79 C-2.66 78.34 -3.32 77.68 -4 77 C-4.99 77 -5.98 77 -7 77 C-7.33 78.98 -7.66 80.96 -8 83 C-9.32 83 -10.64 83 -12 83 C-12.06 82.36 -12.12 81.72 -12.19 81.06 C-12.46 80.38 -12.72 79.7 -13 79 C-14.24 78.81 -14.24 78.81 -15.5 78.62 C-16.33 78.42 -17.15 78.21 -18 78 C-18.69 75.06 -18.69 75.06 -19 72 C-19.66 71.34 -20.32 70.68 -21 70 C-21.23 67.31 -21.32 64.75 -21.31 62.06 C-21.33 61.33 -21.34 60.6 -21.36 59.85 C-21.37 54.45 -21.37 54.45 -19.55 52.22 C-19.04 51.82 -18.53 51.41 -18 51 C-17.27 48.69 -16.6 46.35 -16 44 C-15.67 43.34 -15.34 42.68 -15 42 C-14.38 41.9 -13.76 41.79 -13.12 41.69 C-10.74 41.18 -10.74 41.18 -9.56 38.56 C-7.7 35.51 -6.32 35.08 -3 34 C-3 33.67 -3 33.34 -3 33 C5.25 33 13.5 33 22 33 C22 32.34 22 31.68 22 31 C24.97 31 27.94 31 31 31 C31 31.99 31 32.98 31 34 C34.37 35.69 38.17 35.14 41.88 35.12 C42.69 35.13 43.51 35.13 44.35 35.14 C45.14 35.14 45.93 35.13 46.74 35.13 C47.82 35.13 47.82 35.13 48.93 35.13 C51.35 35.04 51.35 35.04 55 34 C55.33 57.76 55.66 81.52 56 106 C56.66 106 57.32 106 58 106 C58.33 106.99 58.66 107.98 59 109 C61.48 108.86 63.96 108.71 66.44 108.56 C67.14 108.52 67.85 108.48 68.58 108.44 C72.09 108.52 72.09 108.52 75 107 C75.09 105.34 75.12 103.68 75.11 102.02 C75.11 100.96 75.11 99.9 75.11 98.81 C75.11 97.65 75.1 96.5 75.1 95.31 C75.1 94.13 75.09 92.96 75.09 91.75 C75.09 87.98 75.08 84.21 75.06 80.44 C75.06 77.89 75.05 75.34 75.05 72.79 C75.04 66.53 75.02 60.26 75 54 C74.67 54 74.34 54 74 54 C73.67 46.74 73.34 39.48 73 32 C81.91 32 90.82 32 100 32 C100.33 28.04 100.66 24.08 101 20 C98.41 16.74 98.41 16.74 95.48 16.86 C94.07 17.02 94.07 17.02 92.62 17.19 C91.22 17.33 91.22 17.33 89.79 17.48 C86.95 18.01 84.58 18.71 82 20 C82 20.66 82 21.32 82 22 C80.68 22 79.36 22 78 22 C78 22.66 78 23.32 78 24 C77.06 24.07 77.06 24.07 76.09 24.15 C71.99 24.51 68.04 24.89 64.06 26 C59.13 27.36 54.09 27.64 49 28 C49 27.34 49 26.68 49 26 C48.34 26 47.68 26 47 26 C47 26.66 47 27.32 47 28 C46.11 27.96 45.23 27.92 44.31 27.88 C41.03 28 38.95 28.61 36 30 C35.81 29.26 35.62 28.53 35.42 27.77 C33.52 24.06 30.79 22.65 27.25 20.75 C26.64 20.4 26.03 20.05 25.41 19.69 C6.44 9.15 -15.04 17.91 -29 32 Z " fill="#A72706" transform="translate(81,5)"/>
<path d="M0 0 C1.12 -0.03 2.24 -0.05 3.4 -0.08 C6.98 0.29 8.76 1.12 11.62 3.25 C16.85 10.01 19.18 16.15 19.06 24.56 C19.06 25.3 19.05 26.05 19.05 26.81 C18.9 32.76 18.06 39.82 13.62 44.25 C11.29 43.96 8.95 43.63 6.62 43.25 C6.81 43.89 7 44.53 7.19 45.19 C7.33 45.87 7.48 46.55 7.62 47.25 C5.68 49.19 2.33 48.56 -0.25 48.62 C-1.51 48.67 -2.76 48.72 -4.05 48.77 C-7.38 48.25 -7.38 48.25 -9.38 45.85 C-9.71 44.99 -10.04 44.13 -10.38 43.25 C-10.04 42.59 -9.71 41.93 -9.38 41.25 C-10.37 40.92 -11.36 40.59 -12.38 40.25 C-12.38 39.26 -12.38 38.27 -12.38 37.25 C-13.04 37.25 -13.7 37.25 -14.38 37.25 C-14.04 35.6 -13.71 33.95 -13.38 32.25 C-14.7 32.25 -16.02 32.25 -17.38 32.25 C-17.43 29.56 -17.47 26.88 -17.5 24.19 C-17.52 23.44 -17.53 22.68 -17.55 21.91 C-17.61 14.65 -16.61 8.65 -11.38 3.25 C-10.71 3.25 -10.05 3.25 -9.38 3.25 C-9.38 2.59 -9.38 1.93 -9.38 1.25 C-6.07 0.15 -3.48 0.05 0 0 Z M-3.56 10.62 C-7.76 16.7 -8.25 24.3 -6.99 31.43 C-6.21 34.84 -5.33 37.31 -3.38 40.25 C-0.42 40.83 -0.42 40.83 2.62 40.25 C6.88 35.99 6.83 31.14 6.88 25.44 C6.9 24.74 6.92 24.04 6.94 23.32 C6.97 18.53 6.18 15.3 3.62 11.25 C0.6 9.23 -0.42 8.65 -3.56 10.62 Z " fill="#A42F11" transform="translate(20.375,135.75)"/>
<path d="M0 0 C2.97 0.33 5.94 0.66 9 1 C9 1.66 9 2.32 9 3 C9.66 3 10.32 3 11 3 C11.27 4.11 11.54 5.23 11.81 6.38 C12.66 10.22 12.66 10.22 16 12 C16.77 14.13 16.77 14.13 17.25 16.56 C17.42 17.37 17.59 18.17 17.77 19 C17.84 19.66 17.92 20.32 18 21 C17.67 21.33 17.34 21.66 17 22 C17.66 22.33 18.32 22.66 19 23 C19.99 22.67 20.98 22.34 22 22 C24.19 23.81 24.19 23.81 26 26 C26 26.66 26 27.32 26 28 C27.32 28 28.64 28 30 28 C29.32 26.36 29.32 26.36 28.62 24.69 C28.37 24.07 28.11 23.46 27.85 22.82 C26.93 20.73 26.93 20.73 25 18 C24.83 15.44 24.77 13 24.81 10.44 C24.81 9.75 24.81 9.07 24.81 8.36 C24.86 3.28 24.86 3.28 26 1 C28.31 1 30.62 1 33 1 C33 16.18 33 31.36 33 47 C29.7 46.67 26.4 46.34 23 46 C22.67 44.68 22.34 43.36 22 42 C21.5 41.5 21.5 41.5 21 41 C20.96 39.33 20.96 37.67 21 36 C20.01 36 19.02 36 18 36 C19 33.01 19.75 32.05 22 30 C18.87 28.96 18.01 29.07 15 30 C14.67 28.35 14.34 26.7 14 25 C12.68 25 11.36 25 10 25 C9.67 25 9.34 25 9 25 C9.08 25.85 9.17 26.69 9.25 27.56 C9.83 33.93 10.11 39.7 9 46 C4.25 47.12 4.25 47.12 2 46 C0.54 42.22 0.79 38.09 0.72 34.09 C0.7 33.33 0.68 32.57 0.66 31.79 C0.58 28.54 0.52 25.29 0.45 22.04 C0.4 19.66 0.34 17.28 0.28 14.91 C0.27 14.17 0.25 13.44 0.24 12.69 C0.17 9.94 0.09 7.37 -0.58 4.69 C-1 3 -1 3 0 0 Z " fill="#A52605" transform="translate(160,137)"/>
<path d="M0 0 C8.58 0 17.16 0 26 0 C26 2 26 4 26 6 C24.02 6 22.04 6 20 6 C20 19.53 20 33.06 20 47 C11 48 11 48 9 47 C8.82 44.09 8.77 41.28 8.8 38.37 C8.81 37.51 8.81 36.64 8.81 35.75 C8.82 32.98 8.85 30.21 8.88 27.44 C8.89 25.56 8.89 23.69 8.9 21.81 C8.92 17.21 8.96 12.6 9 8 C8.36 8.02 7.72 8.05 7.07 8.07 C5.83 8.1 5.83 8.1 4.56 8.12 C3.74 8.15 2.92 8.17 2.07 8.2 C1.38 8.13 0.7 8.07 0 8 C-1 6 -1 6 0 0 Z " fill="#A4290B" transform="translate(72,138)"/>
<path d="M0 0 C3.3 0 6.6 0 10 0 C11 1 11 1 11.12 2.94 C11.12 4.22 11.12 4.22 11.11 5.52 C11.11 6.48 11.11 7.44 11.11 8.43 C11.11 9.48 11.1 10.52 11.1 11.6 C11.1 12.66 11.09 13.73 11.09 14.82 C11.09 18.24 11.08 21.65 11.06 25.06 C11.06 27.37 11.05 29.68 11.05 31.99 C11.04 37.66 11.02 43.33 11 49 C7.37 49 3.74 49 0 49 C0 32.83 0 16.66 0 0 Z " fill="#A42A0D" transform="translate(104,136)"/>
<path d="M0 0 C1.65 1.65 3.3 3.3 5 5 C4.67 4.01 4.34 3.02 4 2 C4.66 2 5.32 2 6 2 C6.33 5.96 6.66 9.92 7 14 C7.33 14 7.66 14 8 14 C8.33 18.95 8.66 23.9 9 29 C12.3 29.33 15.6 29.66 19 30 C19 29.01 19 28.02 19 27 C19.66 27 20.32 27 21 27 C21.33 20.07 21.66 13.14 22 6 C24.31 6.66 26.62 7.32 29 8 C29.33 7.34 29.66 6.68 30 6 C33.36 10.48 33.27 13.61 33 19 C32.34 18.01 31.68 17.02 31 16 C29.8 20.66 28.71 25.24 28 30 C27.01 30 26.02 30 25 30 C25 30.99 25 31.98 25 33 C23.68 32.67 22.36 32.34 21 32 C21 32.66 21 33.32 21 34 C18.53 34.5 18.53 34.5 16 35 C16 34.34 16 33.68 16 33 C11.71 32.67 7.42 32.34 3 32 C2.67 30.35 2.34 28.7 2 27 C1.34 27 0.68 27 0 27 C0 26.34 0 25.68 0 25 C-0.66 25 -1.32 25 -2 25 C-2.2 22.65 -2.38 20.29 -2.56 17.94 C-2.67 16.63 -2.77 15.32 -2.88 13.96 C-3.04 8.62 -3 4.5 0 0 Z " fill="#A52909" transform="translate(123,148)"/>
<path d="M0 0 C0.76 0.82 1.53 1.65 2.31 2.5 C2.64 2.83 2.97 3.16 3.31 3.5 C3.35 5.17 3.36 6.83 3.31 8.5 C0.44 8.69 0.44 8.69 -2.69 8.5 C-3.35 7.51 -4.01 6.52 -4.69 5.5 C-7 5.5 -9.31 5.5 -11.69 5.5 C-11.69 10.12 -11.69 14.74 -11.69 19.5 C-6.87 19.17 -6.87 19.17 -2.75 16.94 C-2.4 16.46 -2.05 15.99 -1.69 15.5 C0.61 18.95 0.92 20.44 0.31 24.5 C-2.19 25.81 -2.19 25.81 -4.69 26.5 C-4.69 26.83 -4.69 27.16 -4.69 27.5 C-7.33 27.5 -9.97 27.5 -12.69 27.5 C-13.02 25.19 -13.35 22.88 -13.69 20.5 C-15.14 20.41 -15.14 20.41 -16.62 20.31 C-17.64 20.04 -18.65 19.78 -19.69 19.5 C-20.38 16.95 -20.38 16.95 -20.69 14.5 C-20.74 15.33 -20.79 16.16 -20.84 17.02 C-20.91 18.11 -20.99 19.19 -21.06 20.31 C-21.13 21.39 -21.2 22.47 -21.27 23.58 C-21.69 26.5 -21.69 26.5 -23.69 29.5 C-23.69 18.94 -23.69 8.38 -23.69 -2.5 C-20.97 -2.69 -18.24 -2.87 -15.44 -3.06 C-14.59 -3.12 -13.74 -3.19 -12.86 -3.25 C-12.18 -3.29 -11.5 -3.33 -10.8 -3.38 C-10.11 -3.43 -9.41 -3.47 -8.7 -3.52 C-4.65 -3.48 -3.02 -2.81 0 0 Z " fill="#A4290B" transform="translate(65.6875,140.5)"/>
<path d="M0 0 C0 2.31 0 4.62 0 7 C-0.66 7 -1.32 7 -2 7 C-2.33 7.99 -2.66 8.98 -3 10 C-3.99 10 -4.98 10 -6 10 C-6.68 12.4 -6.68 12.4 -7 15 C-6.34 15.66 -5.68 16.32 -5 17 C-5 17.99 -5 18.98 -5 20 C-6.98 20.33 -8.96 20.66 -11 21 C-10.67 21.99 -10.34 22.98 -10 24 C-10.81 26.69 -10.81 26.69 -12 29 C-12.66 29 -13.32 29 -14 29 C-14 30.32 -14 31.64 -14 33 C-15.32 33 -16.64 33 -18 33 C-18.08 30.31 -18.14 27.63 -18.19 24.94 C-18.23 23.81 -18.23 23.81 -18.26 22.66 C-18.33 17.32 -17.41 13.77 -15 9 C-14.67 8.34 -14.34 7.68 -14 7 C-13.34 7 -12.68 7 -12 7 C-12 5.68 -12 4.36 -12 3 C-11.34 3 -10.68 3 -10 3 C-10 2.34 -10 1.68 -10 1 C-6.53 -0.16 -3.64 -0.07 0 0 Z " fill="#A62604" transform="translate(33,20)"/>
<path d="M0 0 C0.33 0 0.66 0 1 0 C1.17 2.62 1.33 5.25 1.5 7.88 C1.55 8.62 1.6 9.37 1.64 10.14 C2 15.77 2 15.77 2 18 C2.97 18.19 3.94 18.37 4.94 18.56 C5.95 19.04 6.96 19.51 8 20 C8.88 23.62 8.88 23.62 9 27 C10.65 27 12.3 27 14 27 C12.68 27.33 11.36 27.66 10 28 C10.02 29.14 10.05 30.29 10.07 31.46 C10.09 32.96 10.11 34.45 10.12 35.94 C10.14 36.69 10.16 37.45 10.18 38.22 C10.19 40.15 10.1 42.08 10 44 C7.54 45.23 6.16 45.04 3.44 44.81 C2.63 44.76 1.83 44.7 1 44.64 C0.34 44.43 -0.32 44.22 -1 44 C-2.27 41.12 -2.13 38.11 -2.12 35 C-2.13 34.15 -2.13 33.31 -2.13 32.44 C-2 30 -2 30 -1.51 28.23 C-0.87 25.44 -0.78 22.78 -0.68 19.92 C-0.64 18.76 -0.6 17.6 -0.56 16.41 C-0.52 15.2 -0.48 13.99 -0.44 12.75 C-0.39 11.53 -0.35 10.31 -0.31 9.05 C-0.2 6.03 -0.1 3.02 0 0 Z " fill="#A62C0E" transform="translate(44,141)"/>
<path d="M0 0 C11.13 -1.05 11.13 -1.05 15.46 1.38 C17.35 3.16 18.74 4.73 20 7 C20.08 10.68 19.06 11.91 17 15 C16.01 14.34 15.02 13.68 14 13 C11.85 13.31 11.85 13.31 10 14 C9.88 13.18 9.75 12.35 9.62 11.5 C9.09 10.68 8.55 9.85 8 9 C4.64 8.53 1.38 8.72 -2 9 C-2 9.66 -2 10.32 -2 11 C-3.98 11 -5.96 11 -8 11 C-7.75 7.62 -7.75 7.62 -7 4 C-4.47 2.06 -3.22 2 0 2 C0 1.34 0 0.68 0 0 Z " fill="#A52909" transform="translate(133,137)"/>
<path d="M0 0 C0.99 0.66 1.98 1.32 3 2 C3.37 4.88 3.37 4.88 3.36 8.61 C3.36 9.62 3.36 9.62 3.36 10.66 C3.37 12.91 3.35 15.15 3.33 17.4 C3.33 18.96 3.32 20.52 3.32 22.08 C3.32 25.35 3.3 28.62 3.28 31.89 C3.25 36.09 3.24 40.28 3.24 44.48 C3.23 47.7 3.22 50.92 3.21 54.14 C3.21 55.69 3.2 57.23 3.2 58.78 C3.19 60.94 3.18 63.1 3.16 65.27 C3.15 66.5 3.15 67.73 3.14 69 C3 72 3 72 2 75 C-4.27 75 -10.54 75 -17 75 C-17 61.14 -17 47.28 -17 33 C-17.99 33 -18.98 33 -20 33 C-19.13 31 -19.13 31 -18 29 C-17.34 29 -16.68 29 -16 29 C-16 43.85 -16 58.7 -16 74 C-10.72 74 -5.44 74 0 74 C0 49.58 0 25.16 0 0 Z " fill="#AB5C47" transform="translate(32,38)"/>
<path d="M0 0 C0.99 0 1.98 0 3 0 C3 13.86 3 27.72 3 42 C8.61 42 14.22 42 20 42 C20 42.33 20 42.66 20 43 C13.4 43.33 6.8 43.66 0 44 C-0.33 40.37 -0.66 36.74 -1 33 C-1.33 33 -1.66 33 -2 33 C-2.12 32.2 -2.25 31.39 -2.38 30.56 C-2.58 29.72 -2.79 28.87 -3 28 C-3.66 27.67 -4.32 27.34 -5 27 C-5 25.68 -5 24.36 -5 23 C-4.34 23 -3.68 23 -3 23 C-3.03 22.35 -3.07 21.69 -3.11 21.02 C-3.33 13.57 -2.09 7.13 0 0 Z " fill="#A42808" transform="translate(12,71)"/>
<path d="M0 0 C4.38 -0.05 8.76 -0.09 13.13 -0.11 C14.62 -0.12 16.11 -0.13 17.6 -0.15 C19.74 -0.18 21.88 -0.19 24.02 -0.2 C25.31 -0.21 26.6 -0.22 27.93 -0.23 C31 0 31 0 33 2 C33.24 3.99 33.24 3.99 33.23 6.45 C33.23 7.37 33.23 8.29 33.23 9.24 C33.22 10.24 33.21 11.23 33.2 12.26 C33.19 13.28 33.19 14.29 33.19 15.34 C33.18 18.6 33.15 21.86 33.12 25.12 C33.11 27.33 33.11 29.54 33.1 31.75 C33.08 37.16 33.04 42.58 33 48 C32.67 48 32.34 48 32 48 C32 35.13 32 22.26 32 9 C28.7 9 25.4 9 22 9 C22 21.87 22 34.74 22 48 C21.67 48 21.34 48 21 48 C21 34.8 21 21.6 21 8 C22.98 8 24.96 8 27 8 C26.67 7.01 26.34 6.02 26 5 C26.66 5 27.32 5 28 5 C27.67 4.34 27.34 3.68 27 3 C24.28 2.62 24.28 2.62 21 2.59 C19.17 2.53 19.17 2.53 17.31 2.47 C15.4 2.42 15.4 2.42 13.44 2.38 C12.15 2.34 10.87 2.3 9.55 2.26 C6.37 2.16 3.18 2.08 0 2 C0 1.34 0 0.68 0 0 Z " fill="#BA7561" transform="translate(71,136)"/>
<path d="M0 0 C3.75 3.62 5.15 5.4 5.25 10.62 C5.18 15.79 4.35 19.39 2 24 C-0.38 26.06 -0.38 26.06 -3 27 C-5.81 26.69 -5.81 26.69 -8 26 C-8 25.67 -8 25.34 -8 25 C-6.02 24.67 -4.04 24.34 -2 24 C-1.83 21.08 -1.83 21.08 -2 18 C-2.66 17.34 -3.32 16.68 -4 16 C-4.66 16.99 -5.32 17.98 -6 19 C-9.62 19.19 -9.62 19.19 -13 19 C-13 18.67 -13 18.34 -13 18 C-11.35 18 -9.7 18 -8 18 C-6.81 14.44 -6.74 11.74 -7 8 C-8.36 5.6 -8.36 5.6 -10 4 C-7.56 4.31 -7.56 4.31 -5 5 C-4.67 5.99 -4.34 6.98 -4 8 C-2.02 8 -0.04 8 2 8 C1.34 5.36 0.68 2.72 0 0 Z " fill="#A53C21" transform="translate(67,141)"/>
<path d="M0 0 C2 1 2 1 2.88 3.5 C3.07 9.07 0.97 13.54 -2.5 17.88 C-5.63 21.13 -7.93 22.83 -12.49 23.2 C-22.44 23.37 -22.44 23.37 -27 20 C-32 14.38 -32 14.38 -32 10 C-31.34 10 -30.68 10 -30 10 C-30 10.66 -30 11.32 -30 12 C-29.34 12 -28.68 12 -28 12 C-27.76 12.63 -27.51 13.27 -27.26 13.92 C-26.13 16.31 -26.13 16.31 -23.18 16.83 C-22.09 16.97 -21 17.11 -19.88 17.25 C-18.78 17.4 -17.68 17.55 -16.55 17.7 C-15.29 17.85 -15.29 17.85 -14 18 C-14 18.66 -14 19.32 -14 20 C-12.35 19.67 -10.7 19.34 -9 19 C-9 18.34 -9 17.68 -9 17 C-7.68 17.33 -6.36 17.66 -5 18 C-5 17.01 -5 16.02 -5 15 C-4.01 15 -3.02 15 -2 15 C-1.91 13.75 -1.91 13.75 -1.82 12.48 C-1.73 11.39 -1.65 10.31 -1.56 9.19 C-1.48 8.11 -1.4 7.03 -1.32 5.92 C-1 3 -1 3 0 0 Z " fill="#A33D22" transform="translate(153,163)"/>
<path d="M0 0 C1.17 0.02 2.34 0.04 3.55 0.05 C4.88 0.09 4.88 0.09 6.25 0.12 C6.25 0.46 6.25 0.78 6.25 1.12 C2.62 1.12 -1.01 1.12 -4.75 1.12 C-4.75 1.78 -4.75 2.44 -4.75 3.12 C-7.34 4.73 -8.64 5.12 -11.75 5.12 C-12.08 7.44 -12.41 9.75 -12.75 12.12 C-12.13 11.94 -11.51 11.75 -10.88 11.56 C-8.75 11.12 -8.75 11.12 -6.75 12.12 C-6.75 11.47 -6.75 10.81 -6.75 10.12 C-5.76 10.12 -4.77 10.12 -3.75 10.12 C-4.07 10.83 -4.39 11.54 -4.72 12.27 C-6.11 16.11 -6.19 19.74 -6.41 23.8 C-6.52 24.57 -6.63 25.33 -6.75 26.12 C-7.41 26.45 -8.07 26.78 -8.75 27.12 C-8.75 22.84 -8.75 18.55 -8.75 14.12 C-9.08 15.12 -9.41 16.1 -9.75 17.12 C-12.75 16.12 -12.75 16.12 -14.75 14.12 C-16.65 16.03 -16.19 19.26 -16.38 21.81 C-16.47 23.03 -16.57 24.25 -16.66 25.51 C-16.87 29.1 -16.87 29.1 -16.15 32.46 C-16.02 33.34 -15.89 34.22 -15.75 35.12 C-16.41 35.78 -17.07 36.44 -17.75 37.12 C-21.22 29.09 -20.42 20.27 -17.75 12.12 C-13.44 3.7 -9.59 -0.19 0 0 Z " fill="#A34A35" transform="translate(137.75,135.875)"/>
<path d="M0 0 C0.33 0 0.66 0 1 0 C1.33 6.93 1.66 13.86 2 21 C2.33 21 2.66 21 3 21 C3.03 28.53 3.04 36.06 3.05 43.59 C3.06 46.15 3.07 48.72 3.08 51.28 C3.09 54.96 3.09 58.63 3.1 62.31 C3.1 63.46 3.11 64.62 3.11 65.81 C3.11 67.4 3.11 67.4 3.11 69.02 C3.12 69.96 3.12 70.9 3.12 71.87 C3 74 3 74 2 75 C-0.69 75.24 -3.36 75.42 -6.06 75.56 C-7.2 75.63 -7.2 75.63 -8.36 75.69 C-10.24 75.8 -12.12 75.9 -14 76 C-14 75.01 -14 74.02 -14 73 C-9.38 73 -4.76 73 0 73 C0 48.91 0 24.82 0 0 Z " fill="#BD6F55" transform="translate(153,38)"/>
<path d="M0 0 C0.83 2.83 1.08 5.17 0.88 8.11 C0.83 8.86 0.78 9.62 0.73 10.39 C0.65 11.56 0.65 11.56 0.56 12.75 C0.51 13.54 0.46 14.34 0.4 15.15 C0.28 17.1 0.14 19.05 0 21 C1.32 21 2.64 21 4 21 C3.67 22.65 3.34 24.3 3 26 C3.66 26 4.32 26 5 26 C5.33 26.99 5.66 27.98 6 29 C6.66 29.33 7.32 29.66 8 30 C8.56 31.88 8.56 31.88 9 34 C9.33 34.99 9.66 35.98 10 37 C14.62 36.67 19.24 36.34 24 36 C24 34.68 24 33.36 24 32 C25.98 32.33 27.96 32.66 30 33 C29.02 35.94 28.31 36.85 25.5 38.25 C19.57 39.52 13.66 40.25 8.12 37.31 C1.79 32.63 -0.62 27.64 -2 20 C-2.51 12.91 -2.55 6.7 0 0 Z " fill="#A64E38" transform="translate(3,147)"/>
<path d="M0 0 C0.66 0 1.32 0 2 0 C2 0.66 2 1.32 2 2 C4.31 2 6.62 2 9 2 C9 2.33 9 2.66 9 3 C5.7 3.66 2.4 4.32 -1 5 C2.3 5.33 5.6 5.66 9 6 C6.14 8.86 3.71 9.13 -0.16 9.13 C-1.35 9.13 -1.35 9.13 -2.56 9.14 C-3.8 9.13 -3.8 9.13 -5.06 9.12 C-6.3 9.13 -6.3 9.13 -7.57 9.14 C-8.76 9.13 -8.76 9.13 -9.97 9.13 C-11.06 9.13 -11.06 9.13 -12.17 9.13 C-14 9 -14 9 -16 8 C-16 7.01 -16 6.02 -16 5 C-18.97 5 -21.94 5 -25 5 C-24.67 4.34 -24.34 3.68 -24 3 C-21.28 2.37 -21.28 2.37 -17.94 1.88 C-16.83 1.71 -15.73 1.54 -14.59 1.37 C-13.31 1.19 -13.31 1.19 -12 1 C-11.67 1.99 -11.34 2.98 -11 4 C-10.3 3.67 -9.6 3.34 -8.88 3 C-5.74 1.91 -3.29 1.85 0 2 C0 1.34 0 0.68 0 0 Z " fill="#A64E37" transform="translate(128,31)"/>
<path d="M0 0 C0.99 0.49 0.99 0.49 2 1 C2.24 3.89 2.24 3.89 2.23 7.81 C2.23 8.53 2.23 9.24 2.23 9.97 C2.23 12.34 2.21 14.7 2.2 17.07 C2.19 18.7 2.19 20.34 2.19 21.97 C2.18 26.28 2.16 30.6 2.14 34.91 C2.12 39.31 2.11 43.7 2.1 48.1 C2.08 56.73 2.04 65.37 2 74 C1.34 74 0.68 74 0 74 C0 49.58 0 25.16 0 0 Z " fill="#A64E37" transform="translate(137,37)"/>
<path d="M0 0 C0 5.28 0 10.56 0 16 C-0.33 16 -0.66 16 -1 16 C-1 11.05 -1 6.1 -1 1 C-6.6 1.76 -6.6 1.76 -12 3 C-12 3.66 -12 4.32 -12 5 C-12.66 5 -13.32 5 -14 5 C-14 6.32 -14 7.64 -14 9 C-14.66 9 -15.32 9 -16 9 C-19.56 17.51 -19.7 25.9 -20 35 C-18.68 35 -17.36 35 -16 35 C-16.75 37.5 -16.75 37.5 -18 40 C-19.32 40 -20.64 40 -22 40 C-22.09 36.35 -22.14 32.71 -22.19 29.06 C-22.21 28.04 -22.24 27.02 -22.26 25.97 C-22.34 18.14 -21.76 11.26 -16.56 5.12 C-15.72 4.42 -14.87 3.72 -14 3 C-13.01 2.13 -13.01 2.13 -12 1.25 C-7.71 -1.43 -4.96 -0.99 0 0 Z " fill="#AD614A" transform="translate(35,18)"/>
<path d="M0 0 C0.33 1.32 0.66 2.64 1 4 C3.24 4.23 3.24 4.23 5.12 2 C5.74 1.34 6.36 0.68 7 0 C9.14 6.21 10.37 11.43 10 18 C9.67 18 9.34 18 9 18 C8.74 15.98 8.48 13.96 8.22 11.95 C6.66 9.46 5.69 9.44 2.91 8.74 C1.62 8.5 0.33 8.25 -1 8 C-1.06 9.28 -1.12 10.55 -1.18 11.87 C-1.27 13.54 -1.35 15.21 -1.44 16.88 C-1.5 18.14 -1.5 18.14 -1.56 19.43 C-1.6 20.23 -1.64 21.04 -1.68 21.87 C-1.74 22.98 -1.74 22.98 -1.79 24.12 C-2 26 -2 26 -3 28 C-3.66 28 -4.32 28 -5 28 C-5 28.99 -5 29.98 -5 31 C-12.75 31.12 -12.75 31.12 -15 30 C-15.12 27.44 -15.12 27.44 -15 25 C-14.81 25.66 -14.63 26.32 -14.44 27 C-13.96 27.66 -13.49 28.32 -13 29 C-9.42 29.33 -9.42 29.33 -6 29 C-4.08 23.38 -3.75 18.48 -3.88 12.56 C-3.89 11.32 -3.89 11.32 -3.9 10.06 C-3.93 8.04 -3.96 6.02 -4 4 C-2.68 3.67 -1.36 3.34 0 3 C0 2.01 0 1.02 0 0 Z " fill="#AC4A31" transform="translate(147,147)"/>
<path d="M0 0 C2.31 0 4.62 0 7 0 C7.08 2.58 7.14 5.17 7.19 7.75 C7.23 8.84 7.23 8.84 7.26 9.96 C7.31 13.27 7.23 15.59 5.61 18.52 C4 20 4 20 2 20 C1.29 21.31 0.64 22.65 0 24 C-1.18 25.77 -2.39 27.52 -3.62 29.25 C-4.26 30.14 -4.89 31.03 -5.54 31.95 C-6.02 32.63 -6.5 33.3 -7 34 C-7.33 32.68 -7.66 31.36 -8 30 C-7.34 29.67 -6.68 29.34 -6 29 C-5.59 26.68 -5.26 24.34 -5 22 C-4.01 22 -3.02 22 -2 22 C-1.67 21.34 -1.34 20.68 -1 20 C-0.34 20.33 0.32 20.66 1 21 C0.46 20.3 -0.07 19.6 -0.62 18.88 C-2 16 -2 16 -1.19 12.69 C-0.8 11.8 -0.4 10.91 0 10 C0.99 10 1.98 10 3 10 C3.33 9.34 3.66 8.68 4 8 C4.66 8 5.32 8 6 8 C6 5.69 6 3.38 6 1 C4.02 1 2.04 1 0 1 C0 0.67 0 0.34 0 0 Z " fill="#A83C24" transform="translate(27,19)"/>
<path d="M0 0 C0.33 0 0.66 0 1 0 C1.02 1.05 1.04 2.1 1.06 3.18 C1.14 7.07 1.22 10.96 1.32 14.84 C1.36 16.53 1.39 18.21 1.42 19.9 C1.47 22.31 1.53 24.73 1.59 27.15 C1.6 28.28 1.6 28.28 1.62 29.44 C1.6 33.68 1.6 33.68 4 37 C3.34 37 2.68 37 2 37 C2 37.66 2 38.32 2 39 C4.31 39 6.62 39 9 39 C9.1 31.86 9.05 24.91 8.02 17.83 C8.02 17.22 8.01 16.62 8 16 C8.66 15.67 9.32 15.34 10 15 C11.53 19.6 11.54 24.25 11.81 29.06 C11.89 30.08 11.97 31.1 12.04 32.15 C12.1 33.12 12.15 34.1 12.21 35.1 C12.26 35.99 12.32 36.88 12.38 37.8 C12 40 12 40 10.21 41.28 C6.99 42.33 4.36 42.37 1 42 C-1.97 38.38 -1.15 33.7 -0.98 29.3 C-0.95 28.46 -0.93 27.62 -0.9 26.76 C-0.82 24.09 -0.72 21.42 -0.62 18.75 C-0.57 16.94 -0.51 15.13 -0.45 13.31 C-0.31 8.87 -0.16 4.44 0 0 Z " fill="#9F3B24" transform="translate(160,144)"/>
<path d="M0 0 C1.02 0.43 1.02 0.43 2.06 0.88 C0.06 2.88 0.06 2.88 -1.94 3.75 C-4.1 4.72 -4.1 4.72 -4.94 6.94 C-5.27 7.58 -5.6 8.22 -5.94 8.88 C-7.26 9.25 -8.59 9.58 -9.94 9.88 C-12.13 12.7 -12.13 12.7 -12.38 15.88 C-12.94 18.88 -12.94 18.88 -14.44 20.31 C-16.3 22.26 -16.35 23.23 -16.45 25.89 C-16.48 26.64 -16.52 27.4 -16.56 28.18 C-16.58 28.97 -16.6 29.75 -16.62 30.56 C-16.66 31.36 -16.69 32.16 -16.73 32.98 C-16.81 34.94 -16.88 36.91 -16.94 38.88 C-20.56 33.44 -19.68 25.74 -18.47 19.46 C-16.06 12.31 -8.37 -0.36 0 0 Z " fill="#A74C37" transform="translate(75.9375,37.125)"/>
<path d="M0 0 C0.66 0 1.32 0 2 0 C1.93 1.72 1.93 1.72 1.86 3.47 C1.82 5 1.79 6.53 1.75 8.06 C1.72 8.81 1.68 9.57 1.65 10.34 C1.55 16.13 2.92 19.14 6 24 C6 24.99 6 25.98 6 27 C2 27 2 27 0.5 25.62 C0 25.09 -0.49 24.55 -1 24 C-3.1 22.82 -3.1 22.82 -5 22 C-5.33 22.66 -5.66 23.32 -6 24 C-6.33 23.34 -6.66 22.68 -7 22 C-7.99 21.34 -8.98 20.68 -10 20 C-9.01 19.67 -8.02 19.34 -7 19 C-5.79 17 -5.79 17 -5 15 C-4.34 15.33 -3.68 15.66 -3 16 C-3 17.32 -3 18.64 -3 20 C-2.34 20 -1.68 20 -1 20 C-1.01 18.72 -1.02 17.45 -1.04 16.13 C-1.04 14.46 -1.05 12.79 -1.06 11.12 C-1.07 10.28 -1.08 9.44 -1.09 8.57 C-1.09 7.77 -1.09 6.96 -1.1 6.13 C-1.1 5.39 -1.11 4.65 -1.11 3.88 C-1 2 -1 2 0 0 Z " fill="#A02C0C" transform="translate(184,138)"/>
<path d="M0 0 C2 2 2 2 2.31 5.06 C2.54 6.03 2.77 7 3 8 C5.48 8.66 5.48 8.66 8 9 C8.81 11.06 8.81 11.06 9 13 C10.32 13 11.64 13 13 13 C13.33 11.02 13.66 9.04 14 7 C15.94 7.31 15.94 7.31 18 8 C19.23 11.69 18.64 14.21 18 18 C14.84 18.51 13.04 18.76 10 18 C5.38 14.17 1.81 9.28 -1 4 C-0.69 1.69 -0.69 1.69 0 0 Z " fill="#A3381C" transform="translate(60,75)"/>
<path d="M0 0 C0.33 0 0.66 0 1 0 C1 32.67 1 65.34 1 99 C0.67 99 0.34 99 0 99 C0 66.33 0 33.66 0 0 Z " fill="#D59458" transform="translate(194,26)"/>
<path d="M0 0 C15.51 0 31.02 0 47 0 C47 0.66 47 1.32 47 2 C41.42 3.75 35.42 3.19 29.63 3.19 C27.47 3.19 25.31 3.21 23.15 3.22 C15.25 3.26 7.72 2.82 0 1 C0 0.67 0 0.34 0 0 Z " fill="#A04931" transform="translate(117,9)"/>
<path d="M0 0 C2 1 2 1 3 2 C3.33 1.34 3.66 0.68 4 0 C4.99 0.33 5.98 0.66 7 1 C6.73 1.52 6.47 2.05 6.2 2.59 C2.45 10.81 1.78 19.11 1 28 C0.67 28 0.34 28 0 28 C0 23.05 0 18.1 0 13 C-0.66 13 -1.32 13 -2 13 C-3.53 9.94 -3.23 7.37 -3 4 C-1.5 1.56 -1.5 1.56 0 0 Z " fill="#AB3F25" transform="translate(41,43)"/>
<path d="M0 0 C0.91 0 1.81 0.01 2.75 0.01 C4.11 0 4.11 0 5.5 0 C7.75 0.13 7.75 0.13 8.75 1.13 C8.84 2.64 8.87 4.15 8.86 5.65 C8.86 6.61 8.86 7.57 8.86 8.56 C8.86 9.61 8.85 10.65 8.85 11.73 C8.85 12.79 8.84 13.86 8.84 14.95 C8.84 18.37 8.83 21.78 8.81 25.2 C8.81 27.5 8.8 29.81 8.8 32.12 C8.79 37.79 8.77 43.46 8.75 49.13 C8.42 49.13 8.09 49.13 7.75 49.13 C7.75 33.62 7.75 18.11 7.75 2.13 C4.78 2.13 1.81 2.13 -1.25 2.13 C-1.58 8.73 -1.91 15.33 -2.25 22.13 C-2.91 21.8 -3.57 21.47 -4.25 21.13 C-4.4 19.2 -4.4 19.2 -4.26 16.7 C-4.21 15.8 -4.17 14.91 -4.12 13.98 C-4.06 13.04 -4 12.1 -3.94 11.13 C-3.89 10.19 -3.84 9.25 -3.79 8.28 C-3.33 0.2 -3.33 0.2 0 0 Z " fill="#B76E5B" transform="translate(185.25,135.8671875)"/>
<path d="M0 0 C1.46 0.28 1.46 0.28 2.94 0.56 C5.31 1.02 7.69 1.48 10.06 1.94 C10.06 2.6 10.06 3.26 10.06 3.94 C2.4 4.15 -4.53 4.04 -11.94 1.94 C-12.27 1.61 -12.6 1.28 -12.94 0.94 C-14.46 0.87 -15.98 0.85 -17.5 0.88 C-18.74 0.89 -18.74 0.89 -20 0.9 C-20.96 0.92 -20.96 0.92 -21.94 0.94 C-21.61 -0.05 -21.28 -1.04 -20.94 -2.06 C-14.56 -4.19 -6.47 -1.25 0 0 Z " fill="#A54830" transform="translate(103.9375,6.0625)"/>
<path d="M0 0 C1.68 1.68 1.13 3.77 1.14 6.02 C1.13 6.75 1.13 7.49 1.12 8.25 C1.12 9.02 1.12 9.78 1.12 10.57 C1.03 23.05 0.48 35.53 0 48 C-0.33 48 -0.66 48 -1 48 C-1 32.82 -1 17.64 -1 2 C-3.97 2.66 -6.94 3.32 -10 4 C-12.67 4.07 -15.34 4.1 -18 4 C-18 3.67 -18 3.34 -18 3 C-17.31 2.87 -16.63 2.73 -15.92 2.6 C-14.57 2.33 -14.57 2.33 -13.19 2.06 C-11.85 1.8 -11.85 1.8 -10.48 1.54 C-2.71 -0.14 -2.71 -0.14 0 0 Z " fill="#B36632" transform="translate(194,3)"/>
<path d="M0 0 C0.66 0 1.32 0 2 0 C2.33 1.32 2.66 2.64 3 4 C4.65 3.67 6.3 3.34 8 3 C8 3.66 8 4.32 8 5 C8.66 5 9.32 5 10 5 C10 6.65 10 8.3 10 10 C9.01 9.67 8.02 9.34 7 9 C6.67 9.66 6.34 10.32 6 11 C6.99 11 7.98 11 9 11 C9.31 11.95 9.62 12.9 9.94 13.88 C10.87 16.86 10.87 16.86 12 19 C11.67 19.66 11.34 20.32 11 21 C14.3 21.33 17.6 21.66 21 22 C21 22.33 21 22.66 21 23 C17.29 24.19 14.66 24.45 11 23 C7.39 18.58 5.16 13.1 2.89 7.9 C1.94 5.75 1.94 5.75 0 3 C0 2.01 0 1.02 0 0 Z " fill="#A5472E" transform="translate(172,162)"/>
<path d="M0 0 C1.61 4.72 0.75 9.18 0 14 C-0.66 14 -1.32 14 -2 14 C-2 9.71 -2 5.42 -2 1 C-3.98 1.66 -5.96 2.32 -8 3 C-12.66 4.24 -17.15 5.31 -22 5 C-20.68 4.67 -19.36 4.34 -18 4 C-18 3.34 -18 2.68 -18 2 C-13.1 -0.61 -5.23 -2.38 0 0 Z " fill="#A14631" transform="translate(181,23)"/>
<path d="M0 0 C-1 3 -1 3 -2 4 C-4.33 4.03 -6.64 3.93 -8.97 3.84 C-9.64 3.89 -10.31 3.95 -11 4 C-11.33 4.66 -11.66 5.32 -12 6 C-13.75 8.19 -13.75 8.19 -16 10 C-18.75 9.75 -18.75 9.75 -21 9 C-21 7.68 -21 6.36 -21 5 C-19.33 5 -17.67 5 -16 5 C-16.66 4.01 -17.32 3.02 -18 2 C-16.13 1.66 -14.25 1.33 -12.38 1 C-11.33 0.81 -10.29 0.63 -9.21 0.44 C-6.09 0.01 -3.14 -0.08 0 0 Z " fill="#D59458" transform="translate(193,5)"/>
<path d="M0 0 C0.33 0 0.66 0 1 0 C1.39 1.6 1.76 3.21 2.12 4.81 C2.33 5.71 2.54 6.6 2.76 7.52 C3 10 3 10 1 13 C0.46 16.39 0.46 16.39 0.25 20.12 C0.15 21.39 0.05 22.65 -0.05 23.95 C-0.03 24.95 -0.02 25.96 0 27 C0.66 27.33 1.32 27.66 2 28 C-1.88 27.12 -1.88 27.12 -3 26 C-2.93 23.3 -2.81 20.63 -2.62 17.94 C-2.58 17.2 -2.54 16.46 -2.49 15.7 C-1.6 1.6 -1.6 1.6 0 0 Z " fill="#A94A31" transform="translate(4,99)"/>
<path d="M0 0 C-1.46 4.13 -3.26 7.57 -6 11 C-8.81 12.24 -10.93 13 -14 13 C-14 13.66 -14 14.32 -14 15 C-15.88 16.69 -15.88 16.69 -18 18 C-18.66 17.67 -19.32 17.34 -20 17 C-18.13 15.1 -16.25 13.21 -14.38 11.31 C-13.59 10.52 -13.59 10.52 -12.79 9.71 C-3.15 0 -3.15 0 0 0 Z " fill="#A94B34" transform="translate(53,21)"/>
<path d="M0 0 C4.01 -1.08 7.04 -1.37 11 0 C15.14 4.49 17.75 10.39 20 16 C19 18 19 18 17 19 C16.88 17.58 16.88 17.58 16.75 16.12 C16.5 15.09 16.25 14.06 16 13 C15.34 12.69 14.68 12.38 14 12.06 C13.34 11.71 12.68 11.36 12 11 C11.25 7.38 11.25 7.38 11 4 C10.34 4 9.68 4 9 4 C9 3.34 9 2.68 9 2 C6.03 1.67 3.06 1.34 0 1 C0 0.67 0 0.34 0 0 Z " fill="#A74F3B" transform="translate(160,136)"/>
<path d="M0 0 C3.85 0.36 7.63 0.63 11.5 0.56 C11.5 1.55 11.5 2.54 11.5 3.56 C8.29 3.59 5.08 3.61 1.88 3.62 C0.52 3.64 0.52 3.64 -0.86 3.65 C-5.53 3.67 -9.91 3.53 -14.5 2.56 C-9.63 -0.68 -5.72 -0.54 0 0 Z " fill="#A64E37" transform="translate(91.5,34.4375)"/>
<path d="M0 0 C2.83 -0.11 5.66 -0.19 8.5 -0.25 C9.29 -0.28 10.08 -0.32 10.9 -0.35 C16.28 -0.44 19.72 0.45 24.29 3.33 C24.85 3.55 25.42 3.77 26 4 C26.99 3.34 27.98 2.68 29 2 C29.12 4.94 29.12 4.94 29 8 C28.01 8.5 28.01 8.5 27 9 C26.59 8.55 26.17 8.09 25.75 7.62 C24.06 5.9 24.06 5.9 21.81 4.94 C21.21 4.63 20.62 4.32 20 4 C20 3.34 20 2.68 20 2 C13.4 2 6.8 2 0 2 C0 1.34 0 0.68 0 0 Z " fill="#BA7561" transform="translate(43,136)"/>
<path d="M0 0 C9.57 0 19.14 0 29 0 C22.66 4.23 16.45 4.71 9 4 C5.89 3.23 2.96 2.23 0 1 C0 0.67 0 0.34 0 0 Z " fill="#A95743" transform="translate(72,93)"/>
<path d="M0 0 C0.96 3.07 1 3.99 0.06 7.25 C-0.81 10.33 -1.12 12.17 -1.06 15.25 C-1 19 -1 19 -2 22 C-2.66 22 -3.32 22 -4 22 C-4 23.32 -4 24.64 -4 26 C-4.99 26.33 -5.98 26.66 -7 27 C-6.42 20.66 -4.93 15.03 -2.94 9 C-2.66 8.13 -2.37 7.26 -2.08 6.36 C-1.4 4.24 -0.7 2.12 0 0 Z " fill="#A94A31" transform="translate(11,72)"/>
</svg>
